<?xml version="1.0" encoding="UTF-8" standalone="no"?>
<!-- Created with Inkscape (http://www.inkscape.org/) -->

<svg
   xmlns:dc="http://purl.org/dc/elements/1.1/"
   xmlns:cc="http://creativecommons.org/ns#"
   xmlns:rdf="http://www.w3.org/1999/02/22-rdf-syntax-ns#"
   xmlns:svg="http://www.w3.org/2000/svg"
   xmlns="http://www.w3.org/2000/svg"
   xmlns:xlink="http://www.w3.org/1999/xlink"
   xmlns:sodipodi="http://sodipodi.sourceforge.net/DTD/sodipodi-0.dtd"
   xmlns:inkscape="http://www.inkscape.org/namespaces/inkscape"
   version="1.1"
   width="489.49426"
   height="476.94739"
   id="svg2"
   sodipodi:docname="Optical_trap_principle_formula_edit.svg"
   inkscape:version="0.92.4 (5da689c313, 2019-01-14)">
  <sodipodi:namedview
     pagecolor="#ffffff"
     bordercolor="#666666"
     borderopacity="1"
     objecttolerance="10"
     gridtolerance="10"
     guidetolerance="10"
     inkscape:pageopacity="0"
     inkscape:pageshadow="2"
     inkscape:window-width="640"
     inkscape:window-height="480"
     id="namedview117"
     showgrid="false"
     inkscape:zoom="1.7951162"
     inkscape:cx="170.25766"
     inkscape:cy="251.41577"
     inkscape:current-layer="svg2" />
  <defs
     id="defs4">
    <marker
       refX="0"
       refY="0"
       orient="auto"
       id="Arrow2Lstart"
       style="overflow:visible">
      <path
         d="M 8.7185878,4.0337352 -2.2072895,0.01601326 8.7185884,-4.0017078 c -1.7454984,2.3720609 -1.7354408,5.6174519 -6e-7,8.035443 z"
         transform="matrix(1.1,0,0,1.1,1.1,0)"
         id="path4292"
         style="fill-rule:evenodd;stroke-width:0.625;stroke-linejoin:round"
         inkscape:connector-curvature="0" />
    </marker>
    <marker
       refX="0"
       refY="0"
       orient="auto"
       id="Arrow1Lend"
       style="overflow:visible">
      <path
         d="M 0,0 5,-5 -12.5,0 5,5 Z"
         transform="matrix(-0.8,0,0,-0.8,-10,0)"
         id="path4277"
         style="fill-rule:evenodd;stroke:#000000;stroke-width:1.00000003pt"
         inkscape:connector-curvature="0" />
    </marker>
    <marker
       refX="0"
       refY="0"
       orient="auto"
       id="Arrow1Lstart"
       style="overflow:visible">
      <path
         d="M 0,0 5,-5 -12.5,0 5,5 Z"
         transform="matrix(0.8,0,0,0.8,10,0)"
         id="path4274"
         style="fill-rule:evenodd;stroke:#000000;stroke-width:1.00000003pt"
         inkscape:connector-curvature="0" />
    </marker>
    <linearGradient
       id="linearGradient4018">
      <stop
         id="stop4020"
         style="stop-color:#e0401d;stop-opacity:1"
         offset="0" />
      <stop
         id="stop4022"
         style="stop-color:black;stop-opacity:0"
         offset="1" />
    </linearGradient>
    <linearGradient
       id="linearGradient4006">
      <stop
         id="stop4008"
         style="stop-color:black;stop-opacity:0"
         offset="0" />
      <stop
         id="stop4014"
         style="stop-color:black;stop-opacity:0"
         offset="0.5" />
      <stop
         id="stop4010"
         style="stop-color:black;stop-opacity:0"
         offset="1" />
    </linearGradient>
    <linearGradient
       id="linearGradient3986">
      <stop
         id="stop3988"
         style="stop-color:#ff0016;stop-opacity:1"
         offset="0" />
      <stop
         id="stop3994"
         style="stop-color:#7f4f00;stop-opacity:0.49803922"
         offset="1" />
      <stop
         id="stop3990"
         style="stop-color:black;stop-opacity:0"
         offset="1" />
    </linearGradient>
    <linearGradient
       id="linearGradient3964">
      <stop
         id="stop3984"
         style="stop-color:#7e6213;stop-opacity:0.12156863"
         offset="0" />
      <stop
         id="stop3968"
         style="stop-color:#907116;stop-opacity:0"
         offset="1" />
    </linearGradient>
    <linearGradient
       id="linearGradient3912">
      <stop
         id="stop3936"
         style="stop-color:black;stop-opacity:0.12156863"
         offset="0" />
      <stop
         id="stop3916"
         style="stop-color:black;stop-opacity:0"
         offset="1" />
    </linearGradient>
    <radialGradient
       cx="210.79967"
       cy="682.15436"
       r="221.95093"
       fx="210.79967"
       fy="682.15436"
       id="radialGradient4024"
       xlink:href="#linearGradient4018"
       gradientUnits="userSpaceOnUse"
       gradientTransform="matrix(1,0,0,1.3435091,-81.03125,-675.81717)" />
  </defs>
  <metadata
     id="metadata7">
    <rdf:RDF>
      <cc:Work
         rdf:about="">
        <dc:format>image/svg+xml</dc:format>
        <dc:type
           rdf:resource="http://purl.org/dc/dcmitype/StillImage" />
        <dc:title></dc:title>
      </cc:Work>
    </rdf:RDF>
  </metadata>
  <path
     inkscape:connector-curvature="0"
     style="fill:url(#radialGradient4024);fill-opacity:1;stroke:none"
     id="rect4016"
     d="M 0,56.901743 C 24.8198,76.538023 45.02428,108.49316 57.59375,147.99549 89.78009,249.14818 64.62598,372.90231 1.4375,424.40174 l 256.71875,-0.0312 C 194.95034,372.92685 169.81366,249.14823 202,147.99554 214.56947,108.49321 234.78102,76.538063 259.5625,56.901793 H 0 Z" />
  <path
     inkscape:connector-curvature="0"
     style="fill:none;stroke:#000000;stroke-width:3;stroke-linecap:round;stroke-linejoin:miter;stroke-miterlimit:4;stroke-dasharray:24, 12;stroke-dashoffset:0;stroke-opacity:1"
     id="path4061-0"
     d="M 401.3333,201.93031 H 74.71257" />
  <path
     inkscape:connector-curvature="0"
     style="fill:none;stroke:#000000;stroke-width:3;stroke-linecap:round;stroke-linejoin:miter;stroke-miterlimit:4;stroke-dasharray:24, 12;stroke-dashoffset:0;stroke-opacity:1"
     id="path4061-9"
     d="M 91.20616,2.2406826 V 218.04363" />
  <path
     inkscape:connector-curvature="0"
     style="fill:#3264cd;fill-opacity:1;stroke:none;stroke-width:0.87878168"
     id="path4035"
     d="m 125.48988,201.93031 a 34.283723,34.283723 0 1 1 -68.567445,0 34.283723,34.283723 0 1 1 68.567445,0 z" />
  <path
     inkscape:connector-curvature="0"
     style="fill:none;stroke:#000000;stroke-width:3;stroke-linecap:round;stroke-linejoin:miter;stroke-miterlimit:4;stroke-dasharray:24, 12;stroke-dashoffset:0;stroke-opacity:1;marker-start:none;marker-mid:none;marker-end:url(#Arrow1Lstart)"
     id="path4061"
     d="M 130.08673,1.7677726 V 429.4499" />
  <text
     style="font-style:normal;font-variant:normal;font-weight:normal;font-stretch:normal;font-size:27.100214px;line-height:125%;font-family:'Times New Roman';-inkscape-font-specification:'Times New Roman';text-align:start;writing-mode:lr-tb;text-anchor:start;fill:#000000;fill-opacity:1;stroke:none"
     xml:space="preserve"
     id="text3264"
     y="292.91193"
     x="390.8945"><tspan
       id="tspan3266"
       y="292.91193"
       x="390.8945" /></text>
  <path
     inkscape:connector-curvature="0"
     style="fill:none;stroke:#808080;stroke-width:2.73036265;stroke-linecap:round;stroke-linejoin:round;stroke-miterlimit:4;stroke-dasharray:none;stroke-opacity:1"
     id="path2480"
     d="m 487.83569,219.98183 -6.23049,-30.17286 -6.76015,30.17286 -6.68897,-30.17286 -6.69606,30.17286 -6.56309,-30.17286 -6.57177,30.17298 -6.47953,-30.17298 -7.01938,30.17298" />
  <path
     inkscape:connector-curvature="0"
     style="fill:none;stroke:#000000;stroke-width:2.73036265;stroke-linecap:butt;stroke-linejoin:miter;stroke-miterlimit:4;stroke-dasharray:none;stroke-opacity:1"
     id="path3256"
     d="M 488.12908,265.15082 V 138.7098" />
  <path
     d="m 441.66781,201.93031 a 34.283723,34.283723 0 1 1 -68.56744,0 34.283723,34.283723 0 1 1 68.56744,0 z"
     id="path4035-9"
     style="fill:#3264cd;fill-opacity:1;stroke:none;stroke-width:0.87878168"
     inkscape:connector-curvature="0" />
  <path
     inkscape:connector-curvature="0"
     style="fill:none;stroke:#000000;stroke-width:1.12242794px;stroke-linecap:butt;stroke-linejoin:miter;stroke-opacity:1;marker-start:url(#Arrow1Lstart)"
     id="path4268"
     d="M 141.89897,191.76241 268.52333,126.6668" />
  <path
     inkscape:connector-curvature="0"
     style="fill:none;stroke:#000000;stroke-width:1px;stroke-linecap:butt;stroke-linejoin:miter;stroke-opacity:1;marker-start:url(#Arrow1Lstart)"
     id="path4714"
     d="m 193.61878,240.65174 h 74.01283" />
  <path
     inkscape:connector-curvature="0"
     style="font-style:normal;font-variant:normal;font-weight:normal;font-stretch:normal;letter-spacing:normal;word-spacing:normal;text-anchor:start;fill:#000000;stroke:#000000;stroke-width:0;stroke-linecap:butt;stroke-linejoin:miter;stroke-miterlimit:10.43299961;stroke-dasharray:none;stroke-dashoffset:0;stroke-opacity:1"
     id="path6053"
     d="m 110.89849,3.6992115 0.016,-0.069094 0.0213,-0.079724 0.0213,-0.085039 0.0213,-0.095669 0.0319,-0.1009843 0.0319,-0.1116141 0.0319,-0.1169292 0.0372,-0.1169291 0.0425,-0.1222441 0.0478,-0.127559 0.0532,-0.1328741 0.0532,-0.127559 0.0585,-0.132874 0.0638,-0.132874 0.0691,-0.132874 0.0744,-0.1328741 0.0797,-0.127559 0.0797,-0.1275591 0.0904,-0.122244 0.0957,-0.1169292 0.0957,-0.1169291 0.1063,-0.1062992 0.11161,-0.1009843 0.11693,-0.0956693 0.12224,-0.0850394 0.13288,-0.0744094 0.0638,-0.0372047 0.0691,-0.0318898 0.0744,-0.0265748 0.0691,-0.0265748 0.0744,-0.0265748 0.0744,-0.0212598 0.0797,-0.0159449 0.0797,-0.0159449 0.0797,-0.0106299 0.085,-0.0106299 0.085,-0.005315 h 0.085 c 0.13287,0 0.76535,0 1.31811,0.34015748 -0.73878,0.13287403 -1.27028,0.79724413 -1.27028,1.42972443 0,0.4198818 0.29232,0.9301181 1.00453,0.9301181 0.58464,0 1.42972,-0.4730315 1.42972,-1.5360236 C 116.00633,0.36141781 114.44373,5.0000002e-7 113.54551,5.0000002e-7 112.00948,5.0000002e-7 111.07936,1.4031501 110.76578,2.0090556 110.10141,0.26574852 108.67169,5.0000002e-7 107.91165,5.0000002e-7 c -2.75847,0 -4.27323,3.41220469999998 -4.27323,4.07657469999998 0,0.2657481 0.26575,0.2657481 0.32421,0.2657481 0.20728,0 0.29232,-0.058465 0.34016,-0.2923229 0.89823,-2.8062991 2.65216,-3.47066921 3.55039,-3.47066921 0.50492,0 1.42441,0.23385827 1.42441,1.76988191 0,0.8185039 -0.44645,2.5990157 -1.42441,6.3035431 -0.42519,1.6423228 -1.35,2.7531498 -2.51929,2.7531498 -0.15945,0 -0.76535,0 -1.31811,-0.345473 0.66437,-0.127559 1.2437,-0.680315 1.2437,-1.429724 0,-0.7122048 -0.57933,-0.9194882 -0.97795,-0.9194882 -0.79724,0 -1.46161,0.6856299 -1.46161,1.5360232 0,1.211811 1.32874,1.743307 2.4874,1.743307 1.75393,0 2.7,-1.854921 2.78504,-2.0090547 0.31358,0.9779527 1.27027,2.0090547 2.85413,2.0090547 2.73189,0 4.24665,-3.4122042 4.24665,-4.0765743 0,-0.265748 -0.23917,-0.265748 -0.32421,-0.265748 -0.23386,0 -0.29232,0.1062992 -0.34016,0.2870079 -0.87165,2.8328734 -2.67342,3.4706694 -3.52382,3.4706694 -1.03641,0 -1.46161,-0.845079 -1.46161,-1.7486222 0,-0.5846457 0.15945,-1.1639764 0.45709,-2.3279527 z" />
  <path
     inkscape:connector-curvature="0"
     style="font-style:normal;font-variant:normal;font-weight:normal;font-stretch:normal;letter-spacing:normal;word-spacing:normal;text-anchor:start;fill:#000000;stroke:#000000;stroke-width:0;stroke-linecap:butt;stroke-linejoin:miter;stroke-miterlimit:10.43299961;stroke-dasharray:none;stroke-dashoffset:0;stroke-opacity:1"
     id="path6260"
     d="m 434.57182,141.29079 v 0 -0.005 0 -0.005 l -0.005,-0.0106 v -0.005 -0.0106 -0.0106 -0.0106 l -0.005,-0.0106 v -0.0106 l -0.005,-0.0106 -0.005,-0.0106 -0.005,-0.016 -0.005,-0.0106 -0.005,-0.0159 -0.005,-0.0106 -0.0106,-0.0159 -0.0106,-0.0106 -0.0106,-0.0106 -0.0106,-0.016 -0.005,-0.005 -0.005,-0.005 -0.0106,-0.005 -0.005,-0.005 -0.0106,-0.005 -0.005,-0.005 -0.0106,-0.005 -0.005,-0.005 -0.0106,-0.005 -0.0106,-0.005 h -0.0106 l -0.0106,-0.005 -0.0106,-0.005 h -0.0106 l -0.0106,-0.005 -0.0106,-0.005 h -0.0159 -0.0106 l -0.0159,-0.005 h -0.0106 -0.0159 l -0.0159,-0.005 h -0.0106 -0.0159 c -0.61654,0 -2.54587,0.21791 -3.2315,0.26575 -0.21791,0.0266 -0.51024,0.0532 -0.51024,0.5315 0,0.31889 0.24449,0.31889 0.64311,0.31889 1.27028,0 1.31811,0.18071 1.31811,0.44646 l -0.0797,0.5315 -3.8374,15.25393 c -0.11162,0.36673 -0.11162,0.4252 -0.11162,0.58465 0,0.6059 0.5315,0.73878 0.77599,0.73878 0.34016,0 0.73878,-0.24449 0.89291,-0.55807 0.13288,-0.23918 1.32874,-5.13426 1.48819,-5.79863 0.89823,0.0797 3.07205,0.49961 3.07205,2.25355 0,0.18071 0,0.29232 -0.0797,0.55807 -0.0532,0.31358 -0.11161,0.62716 -0.11161,0.91949 0,1.56791 1.06299,2.62559 2.44488,2.62559 0.78662,0 1.50414,-0.4252 2.08878,-1.40315 0.65906,-1.16398 0.95138,-2.62559 0.95138,-2.67343 0,-0.26575 -0.23386,-0.26575 -0.3189,-0.26575 -0.26575,0 -0.28701,0.1063 -0.37205,0.47835 -0.52618,1.92933 -1.1374,3.27933 -2.30137,3.27933 -0.49961,0 -0.84508,-0.28701 -0.84508,-1.2437 0,-0.44646 0.1063,-1.05236 0.2126,-1.47756 0.10098,-0.45708 0.10098,-0.55807 0.10098,-0.82382 0,-1.72736 -1.6689,-2.49271 -3.91713,-2.77972 0.81851,-0.48366 1.6689,-1.32874 2.28012,-1.96122 1.27028,-1.40315 2.48209,-2.54055 3.78957,-2.54055 0.15413,0 0.18071,0 0.23386,0.0266 0.3189,0.0478 0.34547,0.0478 0.55275,0.20729 0.0585,0.0319 0.0585,0.0585 0.11162,0.10629 -1.27559,0.085 -1.51477,1.11083 -1.51477,1.42973 0,0.41988 0.29233,0.93012 1.00453,0.93012 0.69095,0 1.46162,-0.58465 1.46162,-1.61044 0,-0.79724 -0.61122,-1.66889 -1.80178,-1.66889 -0.73878,0 -1.96122,0.20728 -3.86929,2.32263 -0.89823,1.00453 -1.92401,2.06752 -2.93386,2.46615 z" />
  <path
     inkscape:connector-curvature="0"
     style="font-style:normal;font-variant:normal;font-weight:normal;font-stretch:normal;letter-spacing:normal;word-spacing:normal;text-anchor:start;fill:#000000;stroke:#000000;stroke-width:0;stroke-linecap:butt;stroke-linejoin:miter;stroke-miterlimit:10.43299961;stroke-dasharray:none;stroke-dashoffset:0;stroke-opacity:1"
     id="path6262"
     d="m 444.46828,156.01323 h 2.89134 v -0.66437 h -2.89134 v -3.40157 h -0.63248 c -0.0159,1.65827 -0.77067,3.49193 -2.54587,3.55039 v 0.51555 h 1.71674 v 5.00138 c 0,2.07815 1.55196,2.49803 2.5937,2.49803 1.2437,0 2.08878,-1.05236 2.08878,-2.51397 v -1.02047 h -0.62717 v 1.00452 c 0,1.25433 -0.58996,1.93996 -1.31279,1.93996 -1.28091,0 -1.28091,-1.55197 -1.28091,-1.89212 z" />
  <path
     inkscape:connector-curvature="0"
     style="font-style:normal;font-variant:normal;font-weight:normal;font-stretch:normal;letter-spacing:normal;word-spacing:normal;text-anchor:start;fill:#000000;stroke:#000000;stroke-width:0;stroke-linecap:butt;stroke-linejoin:miter;stroke-miterlimit:10.43299961;stroke-dasharray:none;stroke-dashoffset:0;stroke-opacity:1"
     id="path6264"
     d="m 452.72773,159.11186 v -0.14882 l 0.005,-0.14882 0.0106,-0.14882 0.0159,-0.14882 0.0213,-0.14882 0.0213,-0.15413 0.0319,-0.14882 0.0319,-0.14882 0.0372,-0.1435 0.0425,-0.14882 0.0478,-0.14351 0.0532,-0.13819 0.0585,-0.13818 0.0638,-0.13288 0.0638,-0.13287 0.0744,-0.12756 0.0797,-0.12225 0.0797,-0.11692 0.0903,-0.11162 0.0904,-0.10098 0.10098,-0.10099 0.1063,-0.0957 0.1063,-0.085 0.11693,-0.0797 0.12224,-0.0691 0.12756,-0.0638 0.13288,-0.0531 0.13819,-0.0478 0.1435,-0.0319 0.14882,-0.0266 0.15413,-0.016 0.16477,-0.005 c -0.16477,0.13287 -0.3189,0.37204 -0.3189,0.66437 0,0.61122 0.48366,0.85571 0.83445,0.85571 0.44645,0 0.85571,-0.30296 0.85571,-0.85571 0,-0.63248 -0.60059,-1.17992 -1.47225,-1.17992 -0.91949,0 -1.94527,0.57401 -2.49803,1.97716 h -0.0159 v -1.97716 l -2.65217,0.19665 v 0.66437 c 1.24902,0 1.39783,0.13287 1.39783,1.04173 v 4.79941 c 0,0.79725 -0.19133,0.79725 -1.39783,0.79725 v 0.66437 c 0.0904,0 1.35531,-0.0744 2.11004,-0.0744 0.79724,0 1.62106,0.0425 2.40768,0.0744 v -0.66437 h -0.36674 c -1.36594,0 -1.36594,-0.20729 -1.36594,-0.83977 z" />
  <path
     inkscape:connector-curvature="0"
     style="font-style:normal;font-variant:normal;font-weight:normal;font-stretch:normal;letter-spacing:normal;word-spacing:normal;text-anchor:start;fill:#000000;stroke:#000000;stroke-width:0;stroke-linecap:butt;stroke-linejoin:miter;stroke-miterlimit:10.43299961;stroke-dasharray:none;stroke-dashoffset:0;stroke-opacity:1"
     id="path6266"
     d="m 465.58993,158.36245 v -0.1754 -0.17539 l -0.005,-0.17008 -0.005,-0.16476 -0.005,-0.0797 -0.0106,-0.0797 -0.005,-0.0744 -0.0106,-0.0797 -0.0106,-0.0744 -0.0159,-0.0744 -0.016,-0.0744 -0.0213,-0.0691 -0.0213,-0.0744 -0.0213,-0.0691 -0.0266,-0.0691 -0.0319,-0.0691 -0.0319,-0.0691 -0.0372,-0.0691 -0.0372,-0.0691 -0.0478,-0.0638 -0.0425,-0.0691 -0.0531,-0.0638 -0.0532,-0.0638 -0.0585,-0.0691 -0.0638,-0.0638 -0.0691,-0.0638 -0.0744,-0.0638 -0.0797,-0.0638 c -0.75473,-0.63248 -1.64233,-0.93012 -2.73721,-0.93012 -1.76457,0 -2.99764,0.675 -2.99764,1.80177 0,0.58996 0.40394,0.90886 0.8876,0.90886 0.49961,0 0.87165,-0.37736 0.87165,-0.87697 0,-0.31358 -0.14881,-0.70157 -0.64842,-0.84508 0.66437,-0.4624 1.73799,-0.4624 1.84961,-0.4624 1.0311,0 2.16318,0.68032 2.16318,2.2376 v 0.57402 0.48366 1.83366 c 0,1.78051 -1.55196,2.2748 -2.38641,2.2748 -0.94607,0 -1.83366,-0.62716 -1.83366,-1.53602 0,-1.02047 0.88759,-2.4502 4.22007,-2.57244 v -0.48366 c -1.01515,0.0372 -2.23228,0.0904 -3.58759,0.58996 -1.6689,0.61653 -2.18445,1.62638 -2.18445,2.46614 0,1.59449 1.92401,2.05157 3.23681,2.05157 1.47756,0 2.34921,-0.82913 2.74252,-1.55196 0.0744,0.75472 0.57401,1.46161 1.42972,1.46161 0.0319,0 1.82303,0 1.82303,-1.75925 v -1.01516 h -0.62185 v 0.99921 c 0,0.18071 0,1.06831 -0.68563,1.06831 -0.68563,0 -0.68563,-0.86102 -0.68563,-1.10551 z" />
  <path
     inkscape:connector-curvature="0"
     style="font-style:normal;font-variant:normal;font-weight:normal;font-stretch:normal;letter-spacing:normal;word-spacing:normal;text-anchor:start;fill:#000000;stroke:#000000;stroke-width:0;stroke-linecap:butt;stroke-linejoin:miter;stroke-miterlimit:10.43299961;stroke-dasharray:none;stroke-dashoffset:0;stroke-opacity:1"
     id="path6268"
     d="m 472.99899,166.25516 h -0.0532 -0.0585 -0.0531 -0.0478 -0.0531 -0.0478 -0.0478 -0.0425 l -0.0478,-0.005 h -0.0425 -0.0425 -0.0372 -0.0425 l -0.0372,-0.005 h -0.0372 l -0.0319,-0.005 h -0.0372 l -0.0319,-0.005 -0.0638,-0.005 -0.0585,-0.005 -0.0531,-0.0106 -0.0478,-0.0106 -0.0478,-0.0159 -0.0425,-0.016 -0.0372,-0.0159 -0.0372,-0.0213 -0.0319,-0.0213 -0.0266,-0.0266 -0.0266,-0.0266 -0.0213,-0.0319 -0.0213,-0.0319 -0.0159,-0.0372 -0.0159,-0.0372 -0.0106,-0.0478 -0.0106,-0.0478 -0.0106,-0.0478 -0.005,-0.0585 -0.005,-0.0585 v -0.0638 l -0.005,-0.0691 v -0.0691 -3.01358 c 0.0904,0.0904 0.96201,1.0683 2.5193,1.0683 l -0.11162,-0.51555 c -1.63169,0 -2.35984,-1.42441 -2.40768,-1.53602 v -4.2998 c 0.55807,-0.92481 1.62638,-1.40315 2.60965,-1.40315 1.55197,0 2.75315,1.62637 2.75315,3.57165 0,2.11535 -1.38189,3.66732 -2.95512,3.66732 l 0.11162,0.51555 c 2.43956,0 4.53366,-1.82834 4.53366,-4.18287 0,-2.2748 -1.88681,-4.16161 -4.23603,-4.16161 -1.05767,0 -2.13661,0.38267 -2.89134,1.12677 V 155.17 l -2.77972,0.19665 v 0.66437 c 1.29154,0 1.39252,0.10098 1.39252,0.87165 v 8.55709 c 0,0.79724 -0.19134,0.79724 -1.39252,0.79724 v 0.66969 c 0.0425,0 1.33406,-0.0744 2.10472,-0.0744 0.69095,0 1.97185,0.0532 2.13662,0.0744 z" />
  <path
     inkscape:connector-curvature="0"
     style="font-style:normal;font-variant:normal;font-weight:normal;font-stretch:normal;letter-spacing:normal;word-spacing:normal;text-anchor:start;fill:#000000;stroke:#000000;stroke-width:0;stroke-linecap:butt;stroke-linejoin:miter;stroke-miterlimit:10.43299961;stroke-dasharray:none;stroke-dashoffset:0;stroke-opacity:1"
     id="path6384"
     d="m 286.18124,341.69172 h 2.56712 c 1.99311,0 2.2004,0.4252 2.2004,1.19055 0,0.19134 0,0.50493 -0.18071,1.29685 -0.0585,0.13288 -0.085,0.23918 -0.085,0.29764 0,0.20729 0.15945,0.31359 0.3189,0.31359 0.26574,0 0.26574,-0.0797 0.39862,-0.55808 l 1.46161,-5.74547 c 0.0744,-0.28701 0.0744,-0.34547 0.0744,-0.41988 0,-0.0531 -0.0532,-0.29232 -0.3189,-0.29232 -0.26574,0 -0.287,0.13287 -0.39862,0.55807 -0.55275,2.05689 -1.15866,2.54055 -3.4122,2.54055 h -2.40768 l 1.69547,-6.72874 c 0.22855,-0.93012 0.26575,-1.0311 1.42441,-1.0311 h 3.49725 c 3.25807,0 3.86397,0.87165 3.86397,2.90728 0,0.61654 0,0.71752 -0.0744,1.43504 -0.0585,0.34547 -0.0585,0.39331 -0.0585,0.47835 0,0.13287 0.0797,0.31358 0.32421,0.31358 0.28701,0 0.31358,-0.15945 0.36673,-0.66437 l 0.5315,-4.57618 c 0.0797,-0.71221 -0.0532,-0.71221 -0.71752,-0.71221 h -12.9685 c -0.5315,0 -0.79725,0 -0.79725,0.5315 0,0.28701 0.23917,0.28701 0.73878,0.28701 0.97795,0 1.71673,0 1.71673,0.47303 0,0.11161 0,0.15945 -0.13287,0.64311 l -3.48662,13.9996 c -0.26574,1.03642 -0.32421,1.24371 -2.4183,1.24371 -0.44646,0 -0.73878,0 -0.73878,0.51023 0,0.31358 0.31358,0.31358 0.39862,0.31358 0.76535,0 2.72658,-0.085 3.49724,-0.085 0.87166,0 3.07205,0.085 3.9437,0.085 0.23918,0 0.55808,0 0.55808,-0.50492 0,-0.20728 -0.15945,-0.26043 -0.15945,-0.29232 -0.085,-0.0266 -0.13288,-0.0266 -0.73878,-0.0266 -0.58996,0 -0.72284,0 -1.37658,-0.0478 -0.77598,-0.085 -0.85039,-0.19134 -0.85039,-0.5315 0,-0.0478 0,-0.21791 0.10098,-0.6059 z" />
  <path
     inkscape:connector-curvature="0"
     style="font-style:normal;font-variant:normal;font-weight:normal;font-stretch:normal;letter-spacing:normal;word-spacing:normal;text-anchor:start;fill:#000000;stroke:#000000;stroke-width:0;stroke-linecap:butt;stroke-linejoin:miter;stroke-miterlimit:10.43299961;stroke-dasharray:none;stroke-dashoffset:0;stroke-opacity:1"
     id="path6386"
     d="m 298.91057,346.93227 h 2.89133 v -0.66437 h -2.89133 v -3.40157 h -0.63248 c -0.016,1.65827 -0.77067,3.49193 -2.55118,3.55039 v 0.51555 h 1.72204 v 5.00138 c 0,2.07815 1.55197,2.49803 2.58839,2.49803 1.24901,0 2.09409,-1.05236 2.09409,-2.51397 v -1.02047 h -0.63248 v 1.00452 c 0,1.25433 -0.58996,1.93996 -1.31279,1.93996 -1.27559,0 -1.27559,-1.55197 -1.27559,-1.89212 z" />
  <path
     inkscape:connector-curvature="0"
     style="font-style:normal;font-variant:normal;font-weight:normal;font-stretch:normal;letter-spacing:normal;word-spacing:normal;text-anchor:start;fill:#000000;stroke:#000000;stroke-width:0;stroke-linecap:butt;stroke-linejoin:miter;stroke-miterlimit:10.43299961;stroke-dasharray:none;stroke-dashoffset:0;stroke-opacity:1"
     id="path6388"
     d="m 307.1647,350.0309 0.005,-0.14882 0.005,-0.14882 0.0106,-0.14882 0.0159,-0.14882 0.0213,-0.14882 0.0213,-0.15413 0.0319,-0.14882 0.0319,-0.14882 0.0372,-0.1435 0.0425,-0.14882 0.0478,-0.14351 0.0531,-0.13819 0.0585,-0.13818 0.0585,-0.13288 0.0691,-0.13287 0.0744,-0.12756 0.0744,-0.12225 0.085,-0.11692 0.0904,-0.11162 0.0904,-0.10098 0.10099,-0.10099 0.10098,-0.0957 0.11162,-0.085 0.11693,-0.0797 0.12224,-0.0691 0.12224,-0.0638 0.13288,-0.0532 0.13819,-0.0478 0.14882,-0.0319 0.14881,-0.0266 0.15414,-0.0159 0.16476,-0.005 c -0.17008,0.13287 -0.3189,0.37204 -0.3189,0.66437 0,0.61122 0.48367,0.85571 0.82914,0.85571 0.45177,0 0.85571,-0.30296 0.85571,-0.85571 0,-0.63248 -0.59528,-1.17992 -1.46693,-1.17992 -0.92481,0 -1.94528,0.57401 -2.49803,1.97716 h -0.0213 v -1.97716 l -2.64685,0.19665 v 0.66437 c 1.2437,0 1.39252,0.13287 1.39252,1.04173 v 4.79941 c 0,0.79725 -0.19134,0.79725 -1.39252,0.79725 v 0.66437 c 0.0904,0 1.35531,-0.0744 2.11004,-0.0744 0.79724,0 1.62106,0.0425 2.40767,0.0744 v -0.66437 h -0.36673 c -1.37126,0 -1.37126,-0.20729 -1.37126,-0.83977 z" />
  <path
     inkscape:connector-curvature="0"
     style="font-style:normal;font-variant:normal;font-weight:normal;font-stretch:normal;letter-spacing:normal;word-spacing:normal;text-anchor:start;fill:#000000;stroke:#000000;stroke-width:0;stroke-linecap:butt;stroke-linejoin:miter;stroke-miterlimit:10.43299961;stroke-dasharray:none;stroke-dashoffset:0;stroke-opacity:1"
     id="path6390"
     d="m 320.03222,349.28149 v -0.1754 -0.17539 l -0.005,-0.17008 -0.005,-0.16476 -0.005,-0.0797 -0.0106,-0.0797 -0.005,-0.0744 -0.0106,-0.0797 -0.016,-0.0744 -0.0106,-0.0744 -0.0159,-0.0744 -0.0213,-0.0691 -0.0213,-0.0744 -0.0266,-0.0691 -0.0266,-0.0691 -0.0266,-0.0691 -0.0319,-0.0691 -0.0372,-0.0691 -0.0425,-0.0691 -0.0425,-0.0638 -0.0478,-0.0691 -0.0478,-0.0638 -0.0585,-0.0638 -0.0585,-0.0691 -0.0638,-0.0638 -0.0691,-0.0638 -0.0691,-0.0638 -0.0797,-0.0638 c -0.75472,-0.63248 -1.64232,-0.93012 -2.74252,-0.93012 -1.75925,0 -2.99232,0.675 -2.99232,1.80177 0,0.58996 0.40394,0.90886 0.8876,0.90886 0.49429,0 0.87165,-0.37736 0.87165,-0.87697 0,-0.31358 -0.14882,-0.70157 -0.64842,-0.84508 0.66437,-0.4624 1.73267,-0.4624 1.8496,-0.4624 1.0311,0 2.15788,0.68032 2.15788,2.2376 v 0.57402 0.48366 1.83366 c 0,1.78051 -1.55197,2.2748 -2.38111,2.2748 -0.94606,0 -1.83366,-0.62716 -1.83366,-1.53602 0,-1.02047 0.8876,-2.4502 4.21477,-2.57244 v -0.48366 c -1.00985,0.0372 -2.23229,0.0904 -3.5876,0.58996 -1.66359,0.61653 -2.17914,1.62638 -2.17914,2.46614 0,1.59449 1.92402,2.05157 3.23681,2.05157 1.47756,0 2.34922,-0.82913 2.74252,-1.55196 0.0744,0.75472 0.5687,1.46161 1.42441,1.46161 0.0372,0 1.82835,0 1.82835,-1.75925 v -1.01516 h -0.62185 v 0.99921 c 0,0.18071 0,1.06831 -0.69095,1.06831 -0.68031,0 -0.68031,-0.86102 -0.68031,-1.10551 z" />
  <path
     inkscape:connector-curvature="0"
     style="font-style:normal;font-variant:normal;font-weight:normal;font-stretch:normal;letter-spacing:normal;word-spacing:normal;text-anchor:start;fill:#000000;stroke:#000000;stroke-width:0;stroke-linecap:butt;stroke-linejoin:miter;stroke-miterlimit:10.43299961;stroke-dasharray:none;stroke-dashoffset:0;stroke-opacity:1"
     id="path6392"
     d="m 327.44127,357.1742 h -0.0585 -0.0532 -0.0532 -0.0478 -0.0532 -0.0478 -0.0478 -0.0425 l -0.0478,-0.005 h -0.0425 -0.0425 -0.0372 -0.0425 l -0.0372,-0.005 h -0.0372 l -0.0372,-0.005 h -0.0319 l -0.0319,-0.005 -0.0638,-0.005 -0.0585,-0.005 -0.0532,-0.0106 -0.0532,-0.0106 -0.0425,-0.0159 -0.0425,-0.016 -0.0425,-0.0159 -0.0319,-0.0213 -0.0319,-0.0213 -0.0266,-0.0266 -0.0266,-0.0266 -0.0213,-0.0319 -0.0213,-0.0319 -0.0159,-0.0372 -0.0159,-0.0372 -0.0159,-0.0478 -0.005,-0.0478 -0.0106,-0.0478 -0.005,-0.0585 -0.005,-0.0585 -0.005,-0.0638 v -0.0691 -0.0691 -3.01358 c 0.0904,0.0904 0.96201,1.0683 2.51398,1.0683 l -0.1063,-0.51555 c -1.63701,0 -2.35985,-1.42441 -2.40768,-1.53602 v -4.2998 c 0.55807,-0.92481 1.62638,-1.40315 2.60433,-1.40315 1.55728,0 2.75846,1.62637 2.75846,3.57165 0,2.11535 -1.3872,3.66732 -2.95511,3.66732 l 0.1063,0.51555 c 2.44488,0 4.53897,-1.82834 4.53897,-4.18287 0,-2.2748 -1.88681,-4.16161 -4.23602,-4.16161 -1.05768,0 -2.13662,0.38267 -2.89134,1.12677 v -1.12677 l -2.78504,0.19665 v 0.66437 c 1.29685,0 1.39784,0.10098 1.39784,0.87165 v 8.55709 c 0,0.79724 -0.19134,0.79724 -1.39784,0.79724 v 0.66969 c 0.0425,0 1.33937,-0.0744 2.11004,-0.0744 0.69095,0 1.97185,0.0532 2.13661,0.0744 z" />
  <path
     inkscape:connector-curvature="0"
     style="font-style:normal;font-variant:normal;font-weight:normal;font-stretch:normal;letter-spacing:normal;word-spacing:normal;text-anchor:start;fill:#000000;stroke:#000000;stroke-width:0;stroke-linecap:butt;stroke-linejoin:miter;stroke-miterlimit:10.43299961;stroke-dasharray:none;stroke-dashoffset:0;stroke-opacity:1"
     id="path6394"
     d="m 360.90427,341.63326 h 0.0744 0.0744 0.0744 l 0.0425,-0.005 h 0.0372 l 0.0372,-0.005 0.0372,-0.005 0.0372,-0.005 0.0372,-0.005 0.0372,-0.005 0.0372,-0.0106 0.0319,-0.0106 0.0319,-0.0106 0.0372,-0.0106 0.0266,-0.016 0.0319,-0.0159 0.0266,-0.0213 0.0266,-0.0159 0.0266,-0.0266 0.0213,-0.0213 0.0213,-0.0266 0.0106,-0.0159 0.0106,-0.0159 0.005,-0.0106 0.0106,-0.016 0.005,-0.0159 0.0106,-0.0213 0.005,-0.016 0.005,-0.0213 0.005,-0.0159 0.005,-0.0213 0.005,-0.0213 v -0.0213 l 0.005,-0.0213 v -0.0213 -0.0213 -0.0266 c 0,-0.53149 -0.50492,-0.53149 -0.87165,-0.53149 h -15.85985 c -0.37204,0 -0.87165,0 -0.87165,0.53149 0,0.52087 0.49961,0.52087 0.89823,0.52087 z" />
  <path
     inkscape:connector-curvature="0"
     style="font-style:normal;font-variant:normal;font-weight:normal;font-stretch:normal;letter-spacing:normal;word-spacing:normal;text-anchor:start;fill:#000000;stroke:#000000;stroke-width:0;stroke-linecap:butt;stroke-linejoin:miter;stroke-miterlimit:10.43299961;stroke-dasharray:none;stroke-dashoffset:0;stroke-opacity:1"
     id="path6396"
     d="m 360.92553,346.77814 h 0.0372 0.0319 l 0.0744,-0.005 h 0.0744 0.0372 l 0.0372,-0.005 0.0372,-0.005 h 0.0372 l 0.0372,-0.005 0.0319,-0.0106 0.0372,-0.005 0.0372,-0.0106 0.0319,-0.0106 0.0319,-0.0106 0.0319,-0.0106 0.0319,-0.0159 0.0266,-0.0159 0.0319,-0.0213 0.0213,-0.0213 0.0266,-0.0213 0.0213,-0.0266 0.0106,-0.0106 0.0106,-0.0159 0.0106,-0.0106 0.0106,-0.016 0.0106,-0.0159 0.005,-0.0159 0.005,-0.0159 0.0106,-0.0159 0.005,-0.0213 0.005,-0.0159 0.005,-0.0213 0.005,-0.0213 0.005,-0.0213 v -0.0213 l 0.005,-0.0213 v -0.0213 -0.0266 -0.0213 c 0,-0.53149 -0.50492,-0.53149 -0.89291,-0.53149 h -15.81201 c -0.39862,0 -0.89823,0 -0.89823,0.53149 0,0.5315 0.49961,0.5315 0.87165,0.5315 z" />
  <path
     inkscape:connector-curvature="0"
     style="font-style:normal;font-variant:normal;font-weight:normal;font-stretch:normal;letter-spacing:normal;word-spacing:normal;text-anchor:start;fill:#000000;stroke:#000000;stroke-width:0;stroke-linecap:butt;stroke-linejoin:miter;stroke-miterlimit:10.43299961;stroke-dasharray:none;stroke-dashoffset:0;stroke-opacity:1"
     id="path6398"
     d="m 384.24167,332.20983 v 0 -0.005 0 -0.005 l -0.005,-0.0106 v -0.005 -0.0106 -0.0106 -0.0106 l -0.005,-0.0106 v -0.0106 l -0.005,-0.0106 -0.005,-0.0106 -0.005,-0.016 -0.005,-0.0106 -0.005,-0.0159 -0.005,-0.0106 -0.0106,-0.0159 -0.0106,-0.0106 -0.0106,-0.0106 -0.0106,-0.016 -0.005,-0.005 -0.005,-0.005 -0.0106,-0.005 -0.005,-0.005 -0.0106,-0.005 -0.005,-0.005 -0.0106,-0.005 -0.005,-0.005 -0.0106,-0.005 -0.0106,-0.005 h -0.0106 l -0.0106,-0.005 -0.0106,-0.005 h -0.0106 l -0.0106,-0.005 -0.0106,-0.005 h -0.0159 -0.0106 l -0.016,-0.005 h -0.0106 -0.0159 l -0.0159,-0.005 h -0.0106 -0.0159 c -0.61654,0 -2.54055,0.21791 -3.2315,0.26575 -0.21791,0.0266 -0.50492,0.0531 -0.50492,0.5315 0,0.31889 0.23918,0.31889 0.6378,0.31889 1.27027,0 1.31811,0.18071 1.31811,0.44646 l -0.0797,0.5315 -3.8374,15.25393 c -0.11161,0.36673 -0.11161,0.4252 -0.11161,0.58465 0,0.6059 0.53149,0.73878 0.77598,0.73878 0.34016,0 0.73878,-0.24449 0.89823,-0.55807 0.13287,-0.23918 1.32874,-5.13426 1.48287,-5.79863 0.89823,0.0797 3.07205,0.49961 3.07205,2.25355 0,0.18071 0,0.29232 -0.0797,0.55807 -0.0532,0.31358 -0.11162,0.62716 -0.11162,0.91949 0,1.56791 1.06299,2.62559 2.44488,2.62559 0.78662,0 1.49882,-0.4252 2.0941,-1.40315 0.65374,-1.16398 0.94606,-2.62559 0.94606,-2.67343 0,-0.26575 -0.23386,-0.26575 -0.3189,-0.26575 -0.26574,0 -0.29232,0.1063 -0.37204,0.47835 -0.52087,1.92933 -1.1374,3.27933 -2.30138,3.27933 -0.49961,0 -0.84508,-0.28701 -0.84508,-1.2437 0,-0.44646 0.1063,-1.05236 0.2126,-1.47756 0.10098,-0.45708 0.10098,-0.55807 0.10098,-0.82382 0,-1.72736 -1.66889,-2.49271 -3.91712,-2.77972 0.8185,-0.48366 1.66889,-1.32874 2.28012,-1.96122 1.27027,-1.40315 2.4874,-2.54055 3.78956,-2.54055 0.15945,0 0.18071,0 0.22855,0.0266 0.32952,0.0478 0.35078,0.0478 0.55807,0.20729 0.0585,0.0319 0.0585,0.0585 0.1063,0.10629 -1.26497,0.085 -1.50945,1.11083 -1.50945,1.42973 0,0.41988 0.29232,0.93012 1.00452,0.93012 0.69095,0 1.46162,-0.58465 1.46162,-1.61044 0,-0.79724 -0.61122,-1.66889 -1.80177,-1.66889 -0.73878,0 -1.96122,0.20728 -3.86929,2.32263 -0.89823,1.00453 -1.92934,2.06752 -2.92855,2.46615 z" />
  <path
     inkscape:connector-curvature="0"
     style="font-style:normal;font-variant:normal;font-weight:normal;font-stretch:normal;letter-spacing:normal;word-spacing:normal;text-anchor:start;fill:#000000;stroke:#000000;stroke-width:0;stroke-linecap:butt;stroke-linejoin:miter;stroke-miterlimit:10.43299961;stroke-dasharray:none;stroke-dashoffset:0;stroke-opacity:1"
     id="path6400"
     d="m 394.13812,346.93227 h 2.89134 v -0.66437 h -2.89134 v -3.40157 h -0.63248 c -0.0159,1.65827 -0.77067,3.49193 -2.54586,3.55039 v 0.51555 h 1.71673 v 5.00138 c 0,2.07815 1.55197,2.49803 2.5937,2.49803 1.2437,0 2.08878,-1.05236 2.08878,-2.51397 v -1.02047 h -0.62717 v 1.00452 c 0,1.25433 -0.58996,1.93996 -1.31279,1.93996 -1.28091,0 -1.28091,-1.55197 -1.28091,-1.89212 z" />
  <path
     inkscape:connector-curvature="0"
     style="font-style:normal;font-variant:normal;font-weight:normal;font-stretch:normal;letter-spacing:normal;word-spacing:normal;text-anchor:start;fill:#000000;stroke:#000000;stroke-width:0;stroke-linecap:butt;stroke-linejoin:miter;stroke-miterlimit:10.43299961;stroke-dasharray:none;stroke-dashoffset:0;stroke-opacity:1"
     id="path6402"
     d="m 402.39757,350.0309 v -0.14882 l 0.005,-0.14882 0.0106,-0.14882 0.0159,-0.14882 0.0213,-0.14882 0.0213,-0.15413 0.0319,-0.14882 0.0319,-0.14882 0.0372,-0.1435 0.0425,-0.14882 0.0478,-0.14351 0.0532,-0.13819 0.0585,-0.13818 0.0638,-0.13288 0.0638,-0.13287 0.0744,-0.12756 0.0797,-0.12225 0.0797,-0.11692 0.0904,-0.11162 0.0904,-0.10098 0.10098,-0.10099 0.1063,-0.0957 0.1063,-0.085 0.11693,-0.0797 0.12225,-0.0691 0.12756,-0.0638 0.13287,-0.0532 0.13819,-0.0478 0.1435,-0.0319 0.14882,-0.0266 0.15413,-0.0159 0.16477,-0.005 c -0.16477,0.13287 -0.3189,0.37204 -0.3189,0.66437 0,0.61122 0.48366,0.85571 0.83445,0.85571 0.44646,0 0.85571,-0.30296 0.85571,-0.85571 0,-0.63248 -0.60059,-1.17992 -1.47225,-1.17992 -0.91948,0 -1.94527,0.57401 -2.49803,1.97716 h -0.0159 v -1.97716 l -2.65217,0.19665 v 0.66437 c 1.24902,0 1.39784,0.13287 1.39784,1.04173 v 4.79941 c 0,0.79725 -0.19134,0.79725 -1.39784,0.79725 v 0.66437 c 0.0904,0 1.35532,-0.0744 2.11004,-0.0744 0.79725,0 1.62106,0.0425 2.40768,0.0744 v -0.66437 h -0.36673 c -1.36595,0 -1.36595,-0.20729 -1.36595,-0.83977 z" />
  <path
     inkscape:connector-curvature="0"
     style="font-style:normal;font-variant:normal;font-weight:normal;font-stretch:normal;letter-spacing:normal;word-spacing:normal;text-anchor:start;fill:#000000;stroke:#000000;stroke-width:0;stroke-linecap:butt;stroke-linejoin:miter;stroke-miterlimit:10.43299961;stroke-dasharray:none;stroke-dashoffset:0;stroke-opacity:1"
     id="path6404"
     d="m 415.25978,349.28149 v -0.1754 -0.17539 l -0.005,-0.17008 -0.005,-0.16476 -0.005,-0.0797 -0.0106,-0.0797 -0.005,-0.0744 -0.0106,-0.0797 -0.0106,-0.0744 -0.016,-0.0744 -0.0159,-0.0744 -0.0213,-0.0691 -0.0213,-0.0744 -0.0213,-0.0691 -0.0266,-0.0691 -0.0319,-0.0691 -0.0319,-0.0691 -0.0372,-0.0691 -0.0372,-0.0691 -0.0478,-0.0638 -0.0425,-0.0691 -0.0532,-0.0638 -0.0531,-0.0638 -0.0585,-0.0691 -0.0638,-0.0638 -0.0691,-0.0638 -0.0744,-0.0638 -0.0797,-0.0638 c -0.75473,-0.63248 -1.64233,-0.93012 -2.73721,-0.93012 -1.76456,0 -2.99763,0.675 -2.99763,1.80177 0,0.58996 0.40393,0.90886 0.88759,0.90886 0.49961,0 0.87166,-0.37736 0.87166,-0.87697 0,-0.31358 -0.14882,-0.70157 -0.64843,-0.84508 0.66437,-0.4624 1.73799,-0.4624 1.84961,-0.4624 1.0311,0 2.16319,0.68032 2.16319,2.2376 v 0.57402 0.48366 1.83366 c 0,1.78051 -1.55197,2.2748 -2.38642,2.2748 -0.94606,0 -1.83366,-0.62716 -1.83366,-1.53602 0,-1.02047 0.8876,-2.4502 4.22008,-2.57244 v -0.48366 c -1.01516,0.0372 -2.23229,0.0904 -3.5876,0.58996 -1.6689,0.61653 -2.18445,1.62638 -2.18445,2.46614 0,1.59449 1.92402,2.05157 3.23681,2.05157 1.47756,0 2.34921,-0.82913 2.74252,-1.55196 0.0744,0.75472 0.57402,1.46161 1.42973,1.46161 0.0319,0 1.82303,0 1.82303,-1.75925 v -1.01516 h -0.62185 v 0.99921 c 0,0.18071 0,1.06831 -0.68563,1.06831 -0.68563,0 -0.68563,-0.86102 -0.68563,-1.10551 z" />
  <path
     inkscape:connector-curvature="0"
     style="font-style:normal;font-variant:normal;font-weight:normal;font-stretch:normal;letter-spacing:normal;word-spacing:normal;text-anchor:start;fill:#000000;stroke:#000000;stroke-width:0;stroke-linecap:butt;stroke-linejoin:miter;stroke-miterlimit:10.43299961;stroke-dasharray:none;stroke-dashoffset:0;stroke-opacity:1"
     id="path6406"
     d="m 422.66883,357.1742 h -0.0532 -0.0585 -0.0531 -0.0478 -0.0532 -0.0478 -0.0478 -0.0425 l -0.0478,-0.005 h -0.0425 -0.0425 -0.0372 -0.0425 l -0.0372,-0.005 h -0.0372 l -0.0319,-0.005 h -0.0372 l -0.0319,-0.005 -0.0638,-0.005 -0.0585,-0.005 -0.0532,-0.0106 -0.0478,-0.0106 -0.0478,-0.0159 -0.0425,-0.016 -0.0372,-0.0159 -0.0372,-0.0213 -0.0319,-0.0213 -0.0266,-0.0266 -0.0266,-0.0266 -0.0213,-0.0319 -0.0213,-0.0319 -0.0159,-0.0372 -0.016,-0.0372 -0.0106,-0.0478 -0.0106,-0.0478 -0.0106,-0.0478 -0.005,-0.0585 -0.005,-0.0585 v -0.0638 l -0.005,-0.0691 v -0.0691 -3.01358 c 0.0904,0.0904 0.962,1.0683 2.51929,1.0683 l -0.11162,-0.51555 c -1.63169,0 -2.35984,-1.42441 -2.40767,-1.53602 v -4.2998 c 0.55807,-0.92481 1.62637,-1.40315 2.60964,-1.40315 1.55197,0 2.75315,1.62637 2.75315,3.57165 0,2.11535 -1.38189,3.66732 -2.95512,3.66732 l 0.11162,0.51555 c 2.43956,0 4.53366,-1.82834 4.53366,-4.18287 0,-2.2748 -1.88681,-4.16161 -4.23602,-4.16161 -1.05768,0 -2.13662,0.38267 -2.89134,1.12677 v -1.12677 l -2.77973,0.19665 v 0.66437 c 1.29154,0 1.39252,0.10098 1.39252,0.87165 v 8.55709 c 0,0.79724 -0.19134,0.79724 -1.39252,0.79724 v 0.66969 c 0.0425,0 1.33406,-0.0744 2.10473,-0.0744 0.69094,0 1.97185,0.0532 2.13661,0.0744 z" />
  <path
     inkscape:connector-curvature="0"
     style="font-style:normal;font-variant:normal;font-weight:normal;font-stretch:normal;letter-spacing:normal;word-spacing:normal;text-anchor:start;fill:#000000;stroke:#000000;stroke-width:0;stroke-linecap:butt;stroke-linejoin:miter;stroke-miterlimit:10.43299961;stroke-dasharray:none;stroke-dashoffset:0;stroke-opacity:1"
     id="path6408"
     d="m 439.37907,342.29763 0.0159,-0.0691 0.0213,-0.0797 0.0213,-0.085 0.0266,-0.0957 0.0266,-0.10098 0.0319,-0.11162 0.0319,-0.11693 0.0425,-0.11693 0.0425,-0.12224 0.0425,-0.12756 0.0531,-0.13287 0.0532,-0.12756 0.0585,-0.13288 0.0638,-0.13287 0.0691,-0.13287 0.0744,-0.13288 0.0797,-0.12756 0.0797,-0.12756 0.0904,-0.12224 0.0957,-0.11693 0.10098,-0.11693 0.10099,-0.1063 0.11161,-0.10098 0.11693,-0.0957 0.12756,-0.085 0.12756,-0.0744 0.0691,-0.0372 0.0691,-0.0319 0.0691,-0.0266 0.0744,-0.0266 0.0691,-0.0266 0.0797,-0.0213 0.0744,-0.0159 0.0797,-0.016 0.0797,-0.0106 0.085,-0.0106 0.085,-0.005 h 0.085 c 0.13287,0 0.76535,0 1.31811,0.34015 -0.73878,0.13288 -1.27028,0.79725 -1.27028,1.42973 0,0.41988 0.29233,0.93012 1.00453,0.93012 0.58465,0 1.42972,-0.47303 1.42972,-1.53603 0,-1.38189 -1.56259,-1.7433 -2.45551,-1.7433 -1.53602,0 -2.46614,1.40315 -2.78504,2.00905 -0.66437,-1.74331 -2.08878,-2.00905 -2.85413,-2.00905 -2.75847,0 -4.26791,3.4122 -4.26791,4.07657 0,0.26575 0.26574,0.26575 0.32421,0.26575 0.20728,0 0.28701,-0.0585 0.34016,-0.29232 0.89291,-2.8063 2.64685,-3.47067 3.54507,-3.47067 0.50493,0 1.42973,0.23386 1.42973,1.76988 0,0.8185 -0.45177,2.59901 -1.42973,6.30354 -0.42519,1.64232 -1.34468,2.75315 -2.51929,2.75315 -0.15413,0 -0.76004,0 -1.31811,-0.34547 0.66437,-0.12756 1.2437,-0.68032 1.2437,-1.42973 0,-0.7122 -0.57933,-0.91948 -0.97795,-0.91948 -0.79724,0 -1.46161,0.68563 -1.46161,1.53602 0,1.21181 1.32874,1.74331 2.49271,1.74331 1.74863,0 2.69469,-1.85492 2.77973,-2.00906 0.3189,0.97795 1.27027,2.00906 2.85945,2.00906 2.73189,0 4.24134,-3.41221 4.24134,-4.07658 0,-0.26575 -0.23918,-0.26575 -0.32422,-0.26575 -0.23386,0 -0.29232,0.1063 -0.34015,0.28701 -0.87166,2.83288 -2.67343,3.47067 -3.51851,3.47067 -1.04173,0 -1.46161,-0.84508 -1.46161,-1.74862 0,-0.58465 0.15413,-1.16398 0.45708,-2.32795 z" />
  <path
     d="m 283.24207,111.09947 h 3.78956 v -0.82382 h -3.78956 v -4.87381 h -0.66437 c -0.0213,2.1685 -0.81851,5.00669 -3.41221,5.10767 v 0.58996 h 2.25355 v 7.30807 c 0,3.25276 2.45551,3.57166 3.4122,3.57166 1.87618,0 2.62559,-1.87618 2.62559,-3.57166 v -1.50944 h -0.66437 v 1.45098 c 0,1.96122 -0.79724,2.96575 -1.78051,2.96575 -1.76988,0 -1.76988,-2.40768 -1.76988,-2.85945 z"
     id="path6554"
     style="font-style:normal;font-variant:normal;font-weight:normal;font-stretch:normal;letter-spacing:normal;word-spacing:normal;text-anchor:start;fill:#000000;stroke:#000000;stroke-width:0;stroke-linecap:butt;stroke-linejoin:miter;stroke-miterlimit:10.43299961;stroke-dasharray:none;stroke-dashoffset:0;stroke-opacity:1"
     inkscape:connector-curvature="0" />
  <path
     d="m 293.34581,112.89061 v -2.90196 l -3.67796,0.287 v 0.82382 c 1.84961,0 2.06752,0.18071 2.06752,1.47756 v 7.10079 c 0,1.18524 -0.29232,1.18524 -2.06752,1.18524 v 0.82381 c 1.03642,-0.0266 2.27481,-0.085 3.0189,-0.085 1.05768,0 2.30138,0 3.36437,0.085 v -0.82381 h -0.55275 c -1.96122,0 -2.01969,-0.28701 -2.01969,-1.24371 v -4.07657 c 0,-2.61496 1.11083,-4.9748 3.13051,-4.9748 0.18071,0 0.23386,0 0.29233,0.0266 -0.085,0.0213 -0.61654,0.34016 -0.61654,1.02579 0,0.74941 0.55807,1.1374 1.14803,1.1374 0.47303,0 1.1374,-0.31358 1.1374,-1.15866 0,-0.85039 -0.82382,-1.61043 -1.96122,-1.61043 -1.93464,0 -2.89134,1.76456 -3.26338,2.90196 z"
     id="path6556"
     style="font-style:normal;font-variant:normal;font-weight:normal;font-stretch:normal;letter-spacing:normal;word-spacing:normal;text-anchor:start;fill:#000000;stroke:#000000;stroke-width:0;stroke-linecap:butt;stroke-linejoin:miter;stroke-miterlimit:10.43299961;stroke-dasharray:none;stroke-dashoffset:0;stroke-opacity:1"
     inkscape:connector-curvature="0" />
  <path
     d="m 308.14266,119.67782 0.0106,0.10098 0.0159,0.0957 0.0213,0.10099 0.0213,0.0957 0.0266,0.10098 0.0266,0.0957 0.0319,0.0957 0.0372,0.0957 0.0425,0.0957 0.0425,0.0904 0.0478,0.0957 0.0478,0.085 0.0532,0.085 0.0585,0.085 0.0585,0.085 0.0638,0.0744 0.0691,0.0744 0.0691,0.0744 0.0744,0.0691 0.0744,0.0638 0.0797,0.0638 0.085,0.0532 0.085,0.0532 0.0904,0.0478 0.0957,0.0425 0.0957,0.0372 0.0957,0.0319 0.10629,0.0266 0.1063,0.0213 0.1063,0.016 0.11162,0.0106 0.11693,0.005 c 0.54744,0 2.1685,-0.37736 2.1685,-2.51929 v -1.47756 h -0.66437 v 1.47756 c 0,1.53603 -0.65906,1.69547 -0.95669,1.69547 -0.87166,0 -0.97796,-1.18523 -0.97796,-1.31811 v -5.29901 c 0,-1.11614 0,-2.14193 -0.95137,-3.1252 -1.03642,-1.02579 -2.35453,-1.45098 -3.62481,-1.45098 -2.17913,0 -4.00216,1.23838 -4.00216,2.98701 0,0.79192 0.53149,1.24901 1.21712,1.24901 0.73878,0 1.22245,-0.53149 1.22245,-1.22244 0,-0.31358 -0.13288,-1.18524 -1.35532,-1.22244 0.71752,-0.91949 2.00906,-1.21181 2.85945,-1.21181 1.30216,0 2.8063,1.0311 2.8063,3.39094 v 0.97796 0.55807 2.64685 c 0,2.51929 -1.90276,3.4122 -3.09862,3.4122 -1.29685,0 -2.38111,-0.93012 -2.38111,-2.24823 0,-1.45098 1.11083,-3.65669 5.47973,-3.81082 v 0 -0.55807 c -1.34469,0.0744 -3.19961,0.15944 -4.86851,0.95669 -1.98248,0.89823 -2.64685,2.2748 -2.64685,3.43878 0,2.14193 2.56713,2.8063 4.23603,2.8063 1.74862,0 2.96575,-1.05768 3.47067,-2.30138 z"
     id="path6558"
     style="font-style:normal;font-variant:normal;font-weight:normal;font-stretch:normal;letter-spacing:normal;word-spacing:normal;text-anchor:start;fill:#000000;stroke:#000000;stroke-width:0;stroke-linecap:butt;stroke-linejoin:miter;stroke-miterlimit:10.43299961;stroke-dasharray:none;stroke-dashoffset:0;stroke-opacity:1"
     inkscape:connector-curvature="0" />
  <path
     d="m 317.13557,111.73195 v -1.7433 l -3.81083,0.287 v 0.82382 c 1.88681,0 2.06752,0.15945 2.06752,1.31811 v 12.39449 c 0,1.19587 -0.28701,1.19587 -2.06752,1.19587 v 0.8185 c 0.90886,-0.0319 2.27481,-0.0797 2.96575,-0.0797 0.71221,0 2.06752,0.0478 2.99764,0.0797 v -0.8185 c -1.7752,0 -2.06752,0 -2.06752,-1.19587 v -4.44331 -0.24448 l 0.37205,-0.34548 c -0.37205,-0.55807 -0.37205,-0.58464 -0.37205,-1.10551 v 0 -5.91555 c 0.76535,-1.34468 2.06752,-2.11535 3.4122,-2.11535 1.93465,0 3.55571,2.33326 3.55571,5.32559 0,3.20492 -1.86023,5.42657 -3.82145,5.42657 -1.05237,0 -2.05689,-0.53149 -2.77441,-1.61575 l -0.37205,0.34548 c 0.13287,0.42519 1.2437,1.85492 3.25807,1.85492 3.15177,0 5.89961,-2.5937 5.89961,-6.01122 0,-3.36437 -2.56181,-5.97933 -5.52756,-5.97933 -2.06752,0 -3.18366,1.15866 -3.71516,1.7433 z"
     id="path6560"
     style="font-style:normal;font-variant:normal;font-weight:normal;font-stretch:normal;letter-spacing:normal;word-spacing:normal;text-anchor:start;fill:#000000;stroke:#000000;stroke-width:0;stroke-linecap:butt;stroke-linejoin:miter;stroke-miterlimit:10.43299961;stroke-dasharray:none;stroke-dashoffset:0;stroke-opacity:1"
     inkscape:connector-curvature="0" />
  <path
     d="m 281.36588,140.70351 v -0.20197 l 0.005,-0.19134 0.005,-0.19134 0.0106,-0.18602 0.016,-0.18071 0.0159,-0.18071 0.0213,-0.17008 0.0213,-0.17008 0.0266,-0.16476 0.0266,-0.15945 0.0266,-0.15413 0.0319,-0.15414 0.0744,-0.29232 0.0797,-0.27106 0.0904,-0.26044 0.0957,-0.24448 0.10099,-0.22855 0.11161,-0.2126 0.11693,-0.20196 0.12225,-0.18603 0.12755,-0.17008 0.13288,-0.15945 0.13819,-0.14881 0.1435,-0.13819 0.14351,-0.12225 0.1435,-0.11161 0.14882,-0.10099 0.14882,-0.085 0.14882,-0.0797 0.15413,-0.0691 0.14882,-0.0638 0.14882,-0.0478 0.14882,-0.0425 0.1435,-0.0319 0.14882,-0.0266 0.13819,-0.0159 0.13819,-0.0106 0.13287,-0.005 c 0.23386,0 1.90276,0.0266 2.83288,0.98327 -1.08957,0.0797 -1.24371,0.87165 -1.24371,1.21712 0,0.69095 0.47304,1.22244 1.21713,1.22244 0.68032,0 1.21181,-0.45708 1.21181,-1.2437 0,-1.80177 -2.00905,-2.83287 -4.05,-2.83287 -3.3059,0 -5.74547,2.85413 -5.74547,6.13878 0,3.38563 2.62027,6.01122 5.69764,6.01122 3.54508,0 4.39015,-3.18366 4.39015,-3.43878 0,-0.26575 -0.26574,-0.26575 -0.34015,-0.26575 -0.23918,0 -0.29233,0.10098 -0.35079,0.26575 -0.76004,2.45551 -2.48209,2.77441 -3.46004,2.77441 -1.40315,0 -3.73642,-1.1374 -3.73642,-5.4 z"
     id="path6718"
     style="font-style:normal;font-variant:normal;font-weight:normal;font-stretch:normal;letter-spacing:normal;word-spacing:normal;text-anchor:start;fill:#000000;stroke:#000000;stroke-width:0;stroke-linecap:butt;stroke-linejoin:miter;stroke-miterlimit:10.43299961;stroke-dasharray:none;stroke-dashoffset:0;stroke-opacity:1"
     inkscape:connector-curvature="0" />
  <path
     d="m 292.94187,140.35803 0.0266,-0.55807 c 0.15414,-3.9437 2.3811,-4.60275 3.28465,-4.60275 2.72657,0 2.99232,3.57165 2.99232,4.60275 h -6.27697 l -0.0266,0.55807 h 7.39311 c 0.57933,0 0.65374,0 0.65374,-0.55807 0,-2.61496 -1.42973,-5.18208 -4.73563,-5.18208 -3.07205,0 -5.51162,2.72126 -5.51162,6.03779 0,3.54508 2.77973,6.11221 5.83051,6.11221 3.2315,0 4.41674,-2.93918 4.41674,-3.43878 0,-0.26575 -0.20729,-0.32421 -0.34016,-0.32421 -0.23917,0 -0.29232,0.15944 -0.35079,0.37204 -0.91949,2.72658 -3.3059,2.72658 -3.57165,2.72658 -1.32874,0 -2.3811,-0.79193 -2.98701,-1.76988 -0.79724,-1.27028 -0.79724,-3.02422 -0.79724,-3.9756 z"
     id="path6720"
     style="font-style:normal;font-variant:normal;font-weight:normal;font-stretch:normal;letter-spacing:normal;word-spacing:normal;text-anchor:start;fill:#000000;stroke:#000000;stroke-width:0;stroke-linecap:butt;stroke-linejoin:miter;stroke-miterlimit:10.43299961;stroke-dasharray:none;stroke-dashoffset:0;stroke-opacity:1"
     inkscape:connector-curvature="0" />
  <path
     d="m 304.65072,137.36571 v 7.10079 c 0,1.18524 -0.29232,1.18524 -2.06752,1.18524 v 0.82381 c 0.93012,-0.0266 2.27481,-0.085 2.98701,-0.085 0.69095,0 2.07284,0.0585 2.96575,0.085 v -0.82381 c -1.76988,0 -2.05689,0 -2.05689,-1.18524 v -4.87382 c 0,-2.75846 1.87618,-4.23602 3.57165,-4.23602 1.6689,0 1.95591,1.42972 1.95591,2.93917 v 6.17067 c 0,1.18524 -0.28701,1.18524 -2.06752,1.18524 v 0.82381 c 0.93012,-0.0266 2.28543,-0.085 2.99764,-0.085 0.69094,0 2.0622,0.0585 2.96575,0.085 v -0.82381 c -1.37658,0 -2.04095,0 -2.06752,-0.79725 v -5.05453 c 0,-2.2748 0,-3.09862 -0.81851,-4.04468 -0.36673,-0.45709 -1.24901,-0.97795 -2.77441,-0.97795 -1.93996,0 -3.18366,1.1374 -3.92244,2.76909 v -2.76909 l -3.73642,0.287 v 0.82382 c 1.84961,0 2.06752,0.18071 2.06752,1.47756 z"
     id="path6722"
     style="font-style:normal;font-variant:normal;font-weight:normal;font-stretch:normal;letter-spacing:normal;word-spacing:normal;text-anchor:start;fill:#000000;stroke:#000000;stroke-width:0;stroke-linecap:butt;stroke-linejoin:miter;stroke-miterlimit:10.43299961;stroke-dasharray:none;stroke-dashoffset:0;stroke-opacity:1"
     inkscape:connector-curvature="0" />
  <path
     d="m 320.28734,135.88815 h 3.78425 v -0.82382 h -3.78425 v -4.87381 h -0.66437 c -0.0266,2.1685 -0.82382,5.00669 -3.41221,5.10767 v 0.58996 h 2.24823 v 7.30807 c 0,3.25276 2.46083,3.57166 3.41221,3.57166 1.87618,0 2.62559,-1.87618 2.62559,-3.57166 v -1.50944 h -0.66437 v 1.45098 c 0,1.96122 -0.79725,2.96575 -1.7752,2.96575 -1.76988,0 -1.76988,-2.40768 -1.76988,-2.85945 z"
     id="path6724"
     style="font-style:normal;font-variant:normal;font-weight:normal;font-stretch:normal;letter-spacing:normal;word-spacing:normal;text-anchor:start;fill:#000000;stroke:#000000;stroke-width:0;stroke-linecap:butt;stroke-linejoin:miter;stroke-miterlimit:10.43299961;stroke-dasharray:none;stroke-dashoffset:0;stroke-opacity:1"
     inkscape:connector-curvature="0" />
  <path
     d="m 328.9082,140.35803 0.0266,-0.55807 c 0.15945,-3.9437 2.3811,-4.60275 3.28464,-4.60275 2.72658,0 2.99233,3.57165 2.99233,4.60275 h -6.27697 l -0.0266,0.55807 h 7.39311 c 0.57934,0 0.65374,0 0.65374,-0.55807 0,-2.61496 -1.42972,-5.18208 -4.73563,-5.18208 -3.07204,0 -5.51161,2.72126 -5.51161,6.03779 0,3.54508 2.78504,6.11221 5.83051,6.11221 3.2315,0 4.41673,-2.93918 4.41673,-3.43878 0,-0.26575 -0.20728,-0.32421 -0.34015,-0.32421 -0.23918,0 -0.29233,0.15944 -0.34548,0.37204 -0.9248,2.72658 -3.3059,2.72658 -3.57165,2.72658 -1.32874,0 -2.38642,-0.79193 -2.99232,-1.76988 -0.79725,-1.27028 -0.79725,-3.02422 -0.79725,-3.9756 z"
     id="path6726"
     style="font-style:normal;font-variant:normal;font-weight:normal;font-stretch:normal;letter-spacing:normal;word-spacing:normal;text-anchor:start;fill:#000000;stroke:#000000;stroke-width:0;stroke-linecap:butt;stroke-linejoin:miter;stroke-miterlimit:10.43299961;stroke-dasharray:none;stroke-dashoffset:0;stroke-opacity:1"
     inkscape:connector-curvature="0" />
  <path
     d="m 342.1212,137.67929 v -2.90196 l -3.67796,0.287 v 0.82382 c 1.84961,0 2.06752,0.18071 2.06752,1.47756 v 7.10079 c 0,1.18524 -0.29232,1.18524 -2.06752,1.18524 v 0.82381 c 1.03642,-0.0266 2.27481,-0.085 3.02422,-0.085 1.05236,0 2.29606,0 3.35905,0.085 v -0.82381 h -0.55275 c -1.96123,0 -2.01969,-0.28701 -2.01969,-1.24371 v -4.07657 c 0,-2.61496 1.11083,-4.9748 3.13051,-4.9748 0.18603,0 0.23386,0 0.29232,0.0266 -0.085,0.0213 -0.61653,0.34016 -0.61653,1.02579 0,0.74941 0.55807,1.1374 1.14803,1.1374 0.47303,0 1.1374,-0.31358 1.1374,-1.15866 0,-0.85039 -0.82382,-1.61043 -1.96122,-1.61043 -1.93464,0 -2.89134,1.76456 -3.26338,2.90196 z"
     id="path6728"
     style="font-style:normal;font-variant:normal;font-weight:normal;font-stretch:normal;letter-spacing:normal;word-spacing:normal;text-anchor:start;fill:#000000;stroke:#000000;stroke-width:0;stroke-linecap:butt;stroke-linejoin:miter;stroke-miterlimit:10.43299961;stroke-dasharray:none;stroke-dashoffset:0;stroke-opacity:1"
     inkscape:connector-curvature="0" />
  <path
     d="m 282.97632,227.49001 v -8.39764 l -3.81083,0.29232 v 0.82382 c 1.84961,0 2.06752,0.18071 2.06752,1.48288 v 15.78011 h 0.66437 c 0.0266,-0.0266 0.23386,-0.39862 0.94606,-1.64232 0.39862,0.61122 1.51477,1.93465 3.47067,1.93465 l -0.1063,-0.58465 c -1.18523,0 -2.14193,-0.63779 -2.77441,-1.61575 -0.37204,-0.55807 -0.37204,-0.63248 -0.37204,-1.10551 v 0 -5.45846 c 0,-0.50492 0,-0.5315 0.29232,-0.95138 1.02579,-1.48819 2.4874,-1.69547 3.11988,-1.69547 1.19587,0 2.15256,0.69094 2.77973,1.69547 0.69094,1.08425 0.77598,2.58839 0.77598,3.67795 0,0.97795 -0.0585,2.56713 -0.82382,3.76299 -0.55807,0.81851 -1.5626,1.69016 -2.99764,1.69016 l 0.1063,0.58465 c 3.15709,0 5.90492,-2.5937 5.90492,-6.01122 0,-3.36437 -2.58838,-5.97933 -5.6126,-5.97933 -2.05688,0 -3.20492,1.2437 -3.63011,1.71673 z"
     id="path6902"
     style="font-style:normal;font-variant:normal;font-weight:normal;font-stretch:normal;letter-spacing:normal;word-spacing:normal;text-anchor:start;fill:#000000;stroke:#000000;stroke-width:0;stroke-linecap:butt;stroke-linejoin:miter;stroke-miterlimit:10.43299961;stroke-dasharray:none;stroke-dashoffset:0;stroke-opacity:1"
     inkscape:connector-curvature="0" />
  <path
     d="m 296.86431,231.35398 0.0266,-0.55807 c 0.15414,-3.9437 2.38111,-4.60275 3.28996,-4.60275 2.72126,0 2.98701,3.57165 2.98701,4.60275 h -6.27697 l -0.0266,0.55807 h 7.39311 c 0.57933,0 0.65374,0 0.65374,-0.55807 0,-2.61496 -1.42973,-5.18208 -4.73032,-5.18208 -3.07736,0 -5.51692,2.72126 -5.51692,6.03779 0,3.54508 2.77972,6.11221 5.83051,6.11221 3.23149,0 4.41673,-2.93918 4.41673,-3.43878 0,-0.26575 -0.20728,-0.32421 -0.34016,-0.32421 -0.23917,0 -0.29232,0.15944 -0.35079,0.37204 -0.91948,2.72658 -3.30059,2.72658 -3.56633,2.72658 -1.32874,0 -2.38642,-0.79193 -2.99233,-1.76988 -0.79724,-1.27028 -0.79724,-3.02422 -0.79724,-3.9756 z"
     id="path6904"
     style="font-style:normal;font-variant:normal;font-weight:normal;font-stretch:normal;letter-spacing:normal;word-spacing:normal;text-anchor:start;fill:#000000;stroke:#000000;stroke-width:0;stroke-linecap:butt;stroke-linejoin:miter;stroke-miterlimit:10.43299961;stroke-dasharray:none;stroke-dashoffset:0;stroke-opacity:1"
     inkscape:connector-curvature="0" />
  <path
     d="m 314.47809,235.46245 0.0106,0.10098 0.0159,0.0957 0.0213,0.10099 0.0213,0.0957 0.0266,0.10098 0.0319,0.0957 0.0319,0.0957 0.0372,0.0957 0.0372,0.0957 0.0425,0.0904 0.0478,0.0957 0.0478,0.085 0.0531,0.085 0.0585,0.085 0.0585,0.085 0.0638,0.0744 0.0691,0.0744 0.0691,0.0744 0.0744,0.0691 0.0744,0.0638 0.085,0.0638 0.0797,0.0531 0.085,0.0532 0.0904,0.0478 0.0957,0.0425 0.0957,0.0372 0.10098,0.0319 0.10099,0.0266 0.10629,0.0213 0.1063,0.016 0.11693,0.0106 0.11162,0.005 c 0.54744,0 2.1685,-0.37736 2.1685,-2.51929 v -1.47756 h -0.66437 v 1.47756 c 0,1.53603 -0.65374,1.69547 -0.95669,1.69547 -0.87166,0 -0.97795,-1.18523 -0.97795,-1.31811 v -5.29901 c 0,-1.11614 0,-2.14193 -0.94607,-3.1252 -1.03641,-1.02579 -2.35984,-1.45098 -3.63012,-1.45098 -2.17381,0 -4.00216,1.23838 -4.00216,2.98701 0,0.79192 0.5315,1.24901 1.22244,1.24901 0.73878,0 1.21713,-0.53149 1.21713,-1.22244 0,-0.31358 -0.13288,-1.18524 -1.35,-1.22244 0.7122,-0.91949 2.00905,-1.21181 2.85413,-1.21181 1.30217,0 2.8063,1.0311 2.8063,3.39094 v 0.97796 0.55807 2.64685 c 0,2.51929 -1.90276,3.4122 -3.09862,3.4122 -1.29154,0 -2.38111,-0.93012 -2.38111,-2.24823 0,-1.45098 1.11083,-3.65669 5.47973,-3.81082 v 0 -0.55807 c -1.34469,0.0744 -3.19429,0.15944 -4.86319,0.95669 -1.98779,0.89823 -2.65216,2.2748 -2.65216,3.43878 0,2.14193 2.56712,2.8063 4.23602,2.8063 1.75394,0 2.96575,-1.05768 3.47067,-2.30138 z"
     id="path6906"
     style="font-style:normal;font-variant:normal;font-weight:normal;font-stretch:normal;letter-spacing:normal;word-spacing:normal;text-anchor:start;fill:#000000;stroke:#000000;stroke-width:0;stroke-linecap:butt;stroke-linejoin:miter;stroke-miterlimit:10.43299961;stroke-dasharray:none;stroke-dashoffset:0;stroke-opacity:1"
     inkscape:connector-curvature="0" />
  <path
     d="m 321.83931,228.36166 v 7.10079 c 0,1.18524 -0.29232,1.18524 -2.06752,1.18524 v 0.82381 c 0.93012,-0.0266 2.2748,-0.085 2.98701,-0.085 0.69094,0 2.06752,0.0585 2.96574,0.085 v -0.82381 c -1.76988,0 -2.05689,0 -2.05689,-1.18524 v -4.87382 c 0,-2.75846 1.87619,-4.23602 3.56634,-4.23602 1.67422,0 1.96122,1.42972 1.96122,2.93917 v 6.17067 c 0,1.18524 -0.287,1.18524 -2.06752,1.18524 v 0.82381 c 0.93012,-0.0266 2.28544,-0.085 2.99764,-0.085 0.69095,0 2.06221,0.0585 2.96575,0.085 v -0.82381 c -1.7752,0 -2.06752,0 -2.06752,-1.18524 v -4.87382 c 0,-2.75846 1.88681,-4.23602 3.58228,-4.23602 1.66359,0 1.95591,1.42972 1.95591,2.93917 v 6.17067 c 0,1.18524 -0.29232,1.18524 -2.06752,1.18524 v 0.82381 c 0.9248,-0.0266 2.2748,-0.085 2.99232,-0.085 0.68563,0 2.06752,0.0585 2.96575,0.085 v -0.82381 c -1.37126,0 -2.03563,0 -2.0622,-0.79725 v -5.05453 c 0,-2.2748 0,-3.09862 -0.82382,-4.04468 -0.37205,-0.45709 -1.2437,-0.97795 -2.77973,-0.97795 -2.22697,0 -3.39094,1.58385 -3.8374,2.58838 -0.37205,-2.30138 -2.33327,-2.58838 -3.5185,-2.58838 -1.93996,0 -3.18366,1.1374 -3.92244,2.76909 v -2.76909 l -3.73642,0.287 v 0.82382 c 1.8496,0 2.06752,0.18071 2.06752,1.47756 z"
     id="path6908"
     style="font-style:normal;font-variant:normal;font-weight:normal;font-stretch:normal;letter-spacing:normal;word-spacing:normal;text-anchor:start;fill:#000000;stroke:#000000;stroke-width:0;stroke-linecap:butt;stroke-linejoin:miter;stroke-miterlimit:10.43299961;stroke-dasharray:none;stroke-dashoffset:0;stroke-opacity:1"
     inkscape:connector-curvature="0" />
  <path
     d="m 295.0838,253.02687 0.0478,-0.12225 0.0478,-0.11693 0.0478,-0.11161 0.0531,-0.1063 0.0532,-0.0957 0.0532,-0.0957 0.0585,-0.0904 0.0585,-0.085 0.0585,-0.0797 0.0638,-0.0744 0.0638,-0.0691 0.0638,-0.0691 0.0638,-0.0585 0.0691,-0.0585 0.0691,-0.0531 0.0691,-0.0531 0.0744,-0.0425 0.0744,-0.0425 0.0744,-0.0425 0.0744,-0.0319 0.0797,-0.0319 0.0744,-0.0266 0.0797,-0.0266 0.0797,-0.0213 0.085,-0.0213 0.0797,-0.016 0.085,-0.0159 0.085,-0.0106 0.0797,-0.0106 0.0904,-0.005 0.085,-0.005 0.085,-0.005 v -0.82382 c -0.58996,0.0532 -1.35532,0.0744 -1.93465,0.0744 -0.77067,0 -1.96122,-0.0478 -2.46614,-0.0744 v 0.82382 c 0.95669,0.0266 1.53602,0.49961 1.53602,1.27028 0,0.15945 0,0.20728 -0.13287,0.55807 l -2.40768,6.77657 -2.62559,-7.39311 c -0.10098,-0.31358 -0.13287,-0.36673 -0.13287,-0.4996 0,-0.71221 1.03642,-0.71221 1.56791,-0.71221 v -0.82382 c -0.77067,0.0266 -2.11535,0.0744 -2.75315,0.0744 -0.79724,0 -1.5626,-0.0213 -2.35984,-0.0744 v 0.82382 c 0.97795,0 1.40315,0.0478 1.6689,0.388 0.13287,0.17007 0.42519,0.95669 0.6059,1.46161 l -2.2748,6.40453 -2.51398,-7.0689 c -0.13287,-0.31358 -0.13287,-0.37205 -0.13287,-0.47303 0,-0.71221 1.03642,-0.71221 1.55728,-0.71221 v -0.82382 c -0.78661,0.0266 -2.2748,0.0744 -2.88071,0.0744 -0.1063,0 -1.50944,-0.0213 -2.46614,-0.0744 v 0.82382 c 1.32874,0 1.64232,0.0744 1.96122,0.91949 l 3.3378,9.37559 c 0.13287,0.37736 0.21791,0.58465 0.55807,0.58465 0.34547,0 0.39862,-0.15945 0.53149,-0.5315 l 2.67343,-7.49409 2.7,7.51535 c 0.1063,0.30295 0.18071,0.51024 0.5315,0.51024 0.34015,0 0.41988,-0.24449 0.53149,-0.51024 z"
     id="path7094"
     style="font-style:normal;font-variant:normal;font-weight:normal;font-stretch:normal;letter-spacing:normal;word-spacing:normal;text-anchor:start;fill:#000000;stroke:#000000;stroke-width:0;stroke-linecap:butt;stroke-linejoin:miter;stroke-miterlimit:10.43299961;stroke-dasharray:none;stroke-dashoffset:0;stroke-opacity:1"
     inkscape:connector-curvature="0" />
  <path
     d="m 305.87848,259.90974 0.0106,0.10098 0.0159,0.0957 0.0213,0.10099 0.0213,0.0957 0.0266,0.10098 0.0319,0.0957 0.0319,0.0957 0.0372,0.0957 0.0372,0.0957 0.0425,0.0903 0.0478,0.0957 0.0478,0.085 0.0531,0.085 0.0585,0.085 0.0585,0.085 0.0638,0.0744 0.0691,0.0744 0.0691,0.0744 0.0744,0.0691 0.0797,0.0638 0.0797,0.0638 0.0797,0.0531 0.0904,0.0532 0.085,0.0478 0.0957,0.0425 0.0957,0.0372 0.10099,0.0319 0.10098,0.0266 0.1063,0.0213 0.1063,0.0159 0.11693,0.0106 0.11161,0.005 c 0.54744,0 2.16851,-0.37736 2.16851,-2.51929 v -1.47756 h -0.66437 v 1.47756 c 0,1.53603 -0.65374,1.69547 -0.9567,1.69547 -0.87165,0 -0.97795,-1.18523 -0.97795,-1.31811 v -5.29901 c 0,-1.11614 0,-2.14193 -0.94606,-3.1252 -1.03642,-1.02579 -2.35984,-1.45098 -3.63012,-1.45098 -2.17382,0 -4.00216,1.23838 -4.00216,2.98701 0,0.79192 0.53149,1.24901 1.22244,1.24901 0.73878,0 1.21712,-0.53149 1.21712,-1.22244 0,-0.31358 -0.13287,-1.18524 -1.35,-1.22244 0.71221,-0.91949 2.00906,-1.21181 2.85414,-1.21181 1.30216,0 2.8063,1.0311 2.8063,3.39094 v 0.97796 0.55807 2.64685 c 0,2.51929 -1.90276,3.4122 -3.09863,3.4122 -1.29153,0 -2.3811,-0.93012 -2.3811,-2.24823 0,-1.45098 1.11083,-3.65669 5.47973,-3.81082 v 0 -0.55807 c -1.34469,0.0744 -3.1943,0.15944 -4.86319,0.95669 -1.9878,0.89823 -2.65217,2.2748 -2.65217,3.43878 0,2.14193 2.56713,2.8063 4.23602,2.8063 1.75394,0 2.96575,-1.05768 3.47067,-2.30138 z"
     id="path7096"
     style="font-style:normal;font-variant:normal;font-weight:normal;font-stretch:normal;letter-spacing:normal;word-spacing:normal;text-anchor:start;fill:#000000;stroke:#000000;stroke-width:0;stroke-linecap:butt;stroke-linejoin:miter;stroke-miterlimit:10.43299961;stroke-dasharray:none;stroke-dashoffset:0;stroke-opacity:1"
     inkscape:connector-curvature="0" />
  <path
     d="m 315.00959,250.22057 -3.70453,0.287 v 0.82382 c 1.71673,0 1.96122,0.15945 1.96122,1.45099 v 7.12736 c 0,1.18524 -0.29232,1.18524 -2.06752,1.18524 v 0.82381 c 0.84508,-0.0266 2.2748,-0.085 2.9126,-0.085 0.93012,0 1.85492,0.0585 2.75846,0.085 v -0.82381 c -1.75393,0 -1.86023,-0.13288 -1.86023,-1.15867 z"
     id="path7098"
     style="font-style:normal;font-variant:normal;font-weight:normal;font-stretch:normal;letter-spacing:normal;word-spacing:normal;text-anchor:start;fill:#000000;stroke:#000000;stroke-width:0;stroke-linecap:butt;stroke-linejoin:miter;stroke-miterlimit:10.43299961;stroke-dasharray:none;stroke-dashoffset:0;stroke-opacity:1"
     inkscape:connector-curvature="0" />
  <path
     d="m 315.11589,245.60718 v -0.0744 l -0.005,-0.0797 -0.0106,-0.0744 -0.0159,-0.0744 -0.0159,-0.0691 -0.0159,-0.0691 -0.0266,-0.0691 -0.0266,-0.0638 -0.0266,-0.0638 -0.0319,-0.0638 -0.0372,-0.0585 -0.0372,-0.0531 -0.0372,-0.0532 -0.0425,-0.0531 -0.0478,-0.0532 -0.0478,-0.0425 -0.0478,-0.0478 -0.0532,-0.0425 -0.0532,-0.0372 -0.0531,-0.0372 -0.0585,-0.0372 -0.0585,-0.0319 -0.0585,-0.0266 -0.0638,-0.0266 -0.0638,-0.0213 -0.0638,-0.0213 -0.0638,-0.0159 -0.0691,-0.0159 -0.0638,-0.0106 -0.0691,-0.005 -0.0691,-0.005 -0.0691,-0.005 c -0.82382,0 -1.40315,0.71752 -1.40315,1.40315 0,0.71752 0.57933,1.40315 1.40315,1.40315 0.73877,0 1.40315,-0.55276 1.40315,-1.40315 z"
     id="path7100"
     style="font-style:normal;font-variant:normal;font-weight:normal;font-stretch:normal;letter-spacing:normal;word-spacing:normal;text-anchor:start;fill:#000000;stroke:#000000;stroke-width:0;stroke-linecap:butt;stroke-linejoin:miter;stroke-miterlimit:10.43299961;stroke-dasharray:none;stroke-dashoffset:0;stroke-opacity:1"
     inkscape:connector-curvature="0" />
  <path
     d="m 323.16274,256.77923 0.0585,0.0106 0.0691,0.0106 0.0744,0.0159 0.085,0.0213 0.0904,0.0213 0.0957,0.0213 0.10098,0.0266 0.10099,0.0319 0.11161,0.0319 0.11161,0.0372 0.11162,0.0425 0.11693,0.0425 0.11693,0.0532 0.12224,0.0532 0.11693,0.0585 0.11693,0.0638 0.11161,0.0744 0.11162,0.0744 0.11161,0.0797 0.1063,0.085 0.10098,0.0957 0.0957,0.10098 0.0904,0.1063 0.0797,0.11161 0.0797,0.11693 0.0319,0.0638 0.0319,0.0638 0.0319,0.0691 0.0319,0.0638 0.0266,0.0744 0.0213,0.0691 0.0213,0.0744 0.0213,0.0744 0.0159,0.0797 0.0106,0.0797 0.0106,0.085 0.0106,0.0797 0.005,0.0904 v 0.085 c 0,1.34469 -0.93012,2.40768 -2.99232,2.40768 -2.22166,0 -3.17835,-1.50945 -3.68327,-3.75768 -0.0744,-0.34015 -0.10098,-0.45177 -0.36673,-0.45177 -0.35079,0 -0.35079,0.18603 -0.35079,0.66437 v 3.49725 c 0,0.44645 0,0.63248 0.29232,0.63248 0.13288,0 0.15945,-0.0266 0.66437,-0.5315 0.0478,-0.0532 0.0478,-0.10098 0.5315,-0.6059 1.16397,1.11082 2.35984,1.1374 2.9126,1.1374 3.04015,0 4.2626,-1.78051 4.2626,-3.67796 0,-1.40314 -0.79725,-2.20039 -1.11083,-2.51929 -0.87697,-0.84508 -1.91339,-1.06299 -3.02421,-1.27027 -1.47756,-0.29233 -3.25807,-0.6378 -3.25807,-2.17382 0,-0.9248 0.69094,-2.00906 2.96574,-2.00906 2.91792,0 3.05079,2.38111 3.09863,3.20493 0.0319,0.23917 0.26574,0.23917 0.32421,0.23917 0.34016,0 0.34016,-0.13288 0.34016,-0.6378 v -2.67342 c 0,-0.45177 0,-0.63248 -0.29233,-0.63248 -0.13287,0 -0.18071,0 -0.53149,0.31358 -0.0744,0.11161 -0.34016,0.34016 -0.44646,0.4252 -1.00453,-0.73878 -2.09409,-0.73878 -2.49272,-0.73878 -3.23149,0 -4.23602,1.76988 -4.23602,3.25275 0,0.92481 0.4252,1.6689 1.1374,2.25355 0.85039,0.68563 1.59449,0.84508 3.49725,1.21181 z"
     id="path7102"
     style="font-style:normal;font-variant:normal;font-weight:normal;font-stretch:normal;letter-spacing:normal;word-spacing:normal;text-anchor:start;fill:#000000;stroke:#000000;stroke-width:0;stroke-linecap:butt;stroke-linejoin:miter;stroke-miterlimit:10.43299961;stroke-dasharray:none;stroke-dashoffset:0;stroke-opacity:1"
     inkscape:connector-curvature="0" />
  <path
     d="m 332.70309,251.33139 h 3.78425 v -0.82382 h -3.78425 v -4.87381 h -0.66437 c -0.0266,2.1685 -0.82382,5.00669 -3.41221,5.10767 v 0.58996 h 2.24823 v 7.30807 c 0,3.25276 2.45551,3.57166 3.41221,3.57166 1.87618,0 2.62559,-1.87618 2.62559,-3.57166 v -1.50944 h -0.66437 v 1.45098 c 0,1.96122 -0.79725,2.96575 -1.7752,2.96575 -1.76988,0 -1.76988,-2.40768 -1.76988,-2.85945 z"
     id="path7104"
     style="font-style:normal;font-variant:normal;font-weight:normal;font-stretch:normal;letter-spacing:normal;word-spacing:normal;text-anchor:start;fill:#000000;stroke:#000000;stroke-width:0;stroke-linecap:butt;stroke-linejoin:miter;stroke-miterlimit:10.43299961;stroke-dasharray:none;stroke-dashoffset:0;stroke-opacity:1"
     inkscape:connector-curvature="0" />
  <path
     inkscape:connector-curvature="0"
     style="font-style:normal;font-variant:normal;font-weight:normal;font-stretch:normal;letter-spacing:normal;word-spacing:normal;text-anchor:start;fill:#000000;stroke:#000000;stroke-width:0;stroke-linecap:butt;stroke-linejoin:miter;stroke-miterlimit:10.43299961;stroke-dasharray:none;stroke-dashoffset:0;stroke-opacity:1"
     id="path7306"
     d="m 56.773401,434.12795 -3.810827,0.29232 v 0.82382 c 1.849606,0 2.06752,0.18071 2.06752,1.48288 v 13.77106 c 0,1.18524 -0.292323,1.18524 -2.06752,1.18524 v 0.82381 c 0.871654,-0.0266 2.274803,-0.085 2.939173,-0.085 0.66437,0 1.961221,0.0585 2.939174,0.085 v -0.82381 c -1.775197,0 -2.06752,0 -2.06752,-1.18524 z" />
  <path
     inkscape:connector-curvature="0"
     style="font-style:normal;font-variant:normal;font-weight:normal;font-stretch:normal;letter-spacing:normal;word-spacing:normal;text-anchor:start;fill:#000000;stroke:#000000;stroke-width:0;stroke-linecap:butt;stroke-linejoin:miter;stroke-miterlimit:10.43299961;stroke-dasharray:none;stroke-dashoffset:0;stroke-opacity:1"
     id="path7308"
     d="m 68.243086,450.49803 0.01063,0.10098 0.01594,0.0957 0.02126,0.10099 0.02126,0.0957 0.02658,0.10098 0.02657,0.0957 0.0372,0.0957 0.03189,0.0957 0.04252,0.0957 0.04252,0.0904 0.04783,0.0957 0.04784,0.085 0.05315,0.085 0.05846,0.085 0.05846,0.085 0.06378,0.0744 0.0691,0.0744 0.06909,0.0744 0.07441,0.0691 0.07441,0.0638 0.07972,0.0638 0.08504,0.0532 0.08504,0.0532 0.09035,0.0478 0.09567,0.0425 0.09567,0.0372 0.100984,0.0319 0.100985,0.0266 0.106299,0.0213 0.106299,0.016 0.111614,0.0106 0.116929,0.005 c 0.547441,0 2.168504,-0.37736 2.168504,-2.51929 v -1.47756 h -0.66437 v 1.47756 c 0,1.53603 -0.659055,1.69547 -0.956693,1.69547 -0.871653,0 -0.977953,-1.18523 -0.977953,-1.31811 v -5.29901 c 0,-1.11614 0,-2.14193 -0.946062,-3.1252 -1.041733,-1.02579 -2.359843,-1.45098 -3.630119,-1.45098 -2.173818,0 -4.002165,1.23838 -4.002165,2.98701 0,0.79192 0.531496,1.24901 1.217126,1.24901 0.744095,0 1.222441,-0.53149 1.222441,-1.22244 0,-0.31358 -0.132874,-1.18524 -1.355315,-1.22244 0.71752,-0.91949 2.01437,-1.21181 2.859449,-1.21181 1.302165,0 2.806299,1.0311 2.806299,3.39094 v 0.97796 0.55807 2.64685 c 0,2.51929 -1.902756,3.4122 -3.098622,3.4122 -1.291535,0 -2.381102,-0.93012 -2.381102,-2.24823 0,-1.45098 1.110827,-3.65669 5.479724,-3.81082 v 0 -0.55807 c -1.344685,0.0744 -3.194291,0.15944 -4.868504,0.95669 -1.98248,0.89823 -2.64685,2.2748 -2.64685,3.43878 0,2.14193 2.567126,2.8063 4.236023,2.8063 1.753937,0 2.965748,-1.05768 3.47067,-2.30138 z" />
  <path
     inkscape:connector-curvature="0"
     style="font-style:normal;font-variant:normal;font-weight:normal;font-stretch:normal;letter-spacing:normal;word-spacing:normal;text-anchor:start;fill:#000000;stroke:#000000;stroke-width:0;stroke-linecap:butt;stroke-linejoin:miter;stroke-miterlimit:10.43299961;stroke-dasharray:none;stroke-dashoffset:0;stroke-opacity:1"
     id="path7310"
     d="m 78.192692,447.36752 0.05846,0.0106 0.0691,0.0106 0.07441,0.0159 0.08504,0.0213 0.09035,0.0213 0.09567,0.0213 0.100984,0.0266 0.100985,0.0319 0.111614,0.0319 0.111614,0.0372 0.116929,0.0425 0.111614,0.0425 0.122244,0.0531 0.11693,0.0532 0.116929,0.0585 0.116929,0.0638 0.111614,0.0744 0.111614,0.0744 0.111614,0.0797 0.1063,0.085 0.100984,0.0957 0.09567,0.10098 0.09035,0.1063 0.07972,0.11161 0.07972,0.11693 0.03189,0.0638 0.03721,0.0638 0.02657,0.0691 0.03189,0.0638 0.02657,0.0744 0.02126,0.0691 0.02126,0.0744 0.02126,0.0744 0.01594,0.0797 0.01063,0.0797 0.01063,0.085 0.01063,0.0797 0.0053,0.0904 v 0.085 c 0,1.34469 -0.930118,2.40768 -2.987008,2.40768 -2.226968,0 -3.183661,-1.50945 -3.688582,-3.75768 -0.07441,-0.34015 -0.100984,-0.45177 -0.366732,-0.45177 -0.350788,0 -0.350788,0.18603 -0.350788,0.66437 v 3.49725 c 0,0.44645 0,0.63248 0.292323,0.63248 0.132874,0 0.159449,-0.0266 0.66437,-0.5315 0.04783,-0.0531 0.04783,-0.10098 0.531496,-0.6059 1.163976,1.11082 2.359843,1.1374 2.917913,1.1374 3.034843,0 4.257284,-1.78051 4.257284,-3.67796 0,-1.40314 -0.797244,-2.20039 -1.110827,-2.51929 -0.871653,-0.84508 -1.913386,-1.06299 -3.024212,-1.27027 -1.47756,-0.29233 -3.258071,-0.6378 -3.258071,-2.17382 0,-0.9248 0.690945,-2.00906 2.965748,-2.00906 2.917913,0 3.050787,2.38111 3.098622,3.20493 0.03189,0.23917 0.265748,0.23917 0.324212,0.23917 0.340158,0 0.340158,-0.13288 0.340158,-0.6378 v -2.67342 c 0,-0.45177 0,-0.63248 -0.292323,-0.63248 -0.132874,0 -0.180709,0 -0.531496,0.31358 -0.07441,0.11161 -0.340158,0.34016 -0.446457,0.4252 -1.004527,-0.73878 -2.094094,-0.73878 -2.492716,-0.73878 -3.231496,0 -4.236024,1.76988 -4.236024,3.25275 0,0.92481 0.425197,1.6689 1.137402,2.25355 0.850393,0.68563 1.594488,0.84508 3.497244,1.21181 z" />
  <path
     inkscape:connector-curvature="0"
     style="font-style:normal;font-variant:normal;font-weight:normal;font-stretch:normal;letter-spacing:normal;word-spacing:normal;text-anchor:start;fill:#000000;stroke:#000000;stroke-width:0;stroke-linecap:butt;stroke-linejoin:miter;stroke-miterlimit:10.43299961;stroke-dasharray:none;stroke-dashoffset:0;stroke-opacity:1"
     id="path7312"
     d="m 86.085408,446.38956 0.02657,-0.55807 c 0.159449,-3.9437 2.386417,-4.60275 3.28996,-4.60275 2.72126,0 2.987008,3.57165 2.987008,4.60275 h -6.276968 l -0.02657,0.55807 h 7.39311 c 0.579331,0 0.65374,0 0.65374,-0.55807 0,-2.61496 -1.424409,-5.18208 -4.730315,-5.18208 -3.072047,0 -5.516929,2.72126 -5.516929,6.03779 0,3.54508 2.78504,6.11221 5.830512,6.11221 3.231496,0 4.416732,-2.93918 4.416732,-3.43878 0,-0.26575 -0.207283,-0.32421 -0.340157,-0.32421 -0.239173,0 -0.287008,0.15944 -0.345473,0.37204 -0.924803,2.72658 -3.305905,2.72658 -3.571653,2.72658 -1.32874,0 -2.386417,-0.79193 -2.992323,-1.76988 -0.797244,-1.27028 -0.797244,-3.02422 -0.797244,-3.9756 z" />
  <path
     inkscape:connector-curvature="0"
     style="font-style:normal;font-variant:normal;font-weight:normal;font-stretch:normal;letter-spacing:normal;word-spacing:normal;text-anchor:start;fill:#000000;stroke:#000000;stroke-width:0;stroke-linecap:butt;stroke-linejoin:miter;stroke-miterlimit:10.43299961;stroke-dasharray:none;stroke-dashoffset:0;stroke-opacity:1"
     id="path7314"
     d="m 99.2984,443.71082 v -2.90196 l -3.677953,0.287 v 0.82382 c 1.854921,0 2.06752,0.18071 2.06752,1.47756 v 7.10079 c 0,1.18524 -0.287008,1.18524 -2.06752,1.18524 v 0.82381 c 1.041732,-0.0266 2.274803,-0.085 3.024213,-0.085 1.052362,0 2.30138,0 3.36437,0.085 v -0.82381 h -0.55807 c -1.961222,0 -2.019686,-0.28701 -2.019686,-1.24371 v -4.07657 c 0,-2.61496 1.116146,-4.9748 3.130516,-4.9748 0.18602,0 0.23385,0 0.29232,0.0266 -0.0797,0.0213 -0.61122,0.34016 -0.61122,1.02579 0,0.74941 0.55275,1.1374 1.14271,1.1374 0.47304,0 1.13741,-0.31358 1.13741,-1.15866 0,-0.85039 -0.82382,-1.61043 -1.96122,-1.61043 -1.93465,0 -2.886028,1.76456 -3.26339,2.90196 z" />
  <path
     inkscape:connector-curvature="0"
     style="font-style:normal;font-variant:normal;font-weight:normal;font-stretch:normal;letter-spacing:normal;word-spacing:normal;text-anchor:start;fill:#000000;stroke:#000000;stroke-width:0;stroke-linecap:butt;stroke-linejoin:miter;stroke-miterlimit:10.43299961;stroke-dasharray:none;stroke-dashoffset:0;stroke-opacity:1"
     id="path7530"
     d="m 159.46131,434.12795 -3.81083,0.29232 v 0.82382 c 1.84961,0 2.06752,0.18071 2.06752,1.48288 v 13.77106 c 0,1.18524 -0.29232,1.18524 -2.06752,1.18524 v 0.82381 c 0.87166,-0.0266 2.27481,-0.085 2.93918,-0.085 0.66437,0 1.96122,0.0585 2.93917,0.085 v -0.82381 c -1.7752,0 -2.06752,0 -2.06752,-1.18524 z" />
  <path
     inkscape:connector-curvature="0"
     style="font-style:normal;font-variant:normal;font-weight:normal;font-stretch:normal;letter-spacing:normal;word-spacing:normal;text-anchor:start;fill:#000000;stroke:#000000;stroke-width:0;stroke-linecap:butt;stroke-linejoin:miter;stroke-miterlimit:10.43299961;stroke-dasharray:none;stroke-dashoffset:0;stroke-opacity:1"
     id="path7532"
     d="m 166.79595,440.80886 -3.70452,0.287 v 0.82382 c 1.71673,0 1.96122,0.15945 1.96122,1.45099 v 7.12736 c 0,1.18524 -0.29233,1.18524 -2.06752,1.18524 v 0.82381 c 0.84508,-0.0266 2.2748,-0.085 2.9126,-0.085 0.93011,0 1.85492,0.0585 2.75846,0.085 v -0.82381 c -1.75394,0 -1.86024,-0.13288 -1.86024,-1.15867 z" />
  <path
     inkscape:connector-curvature="0"
     style="font-style:normal;font-variant:normal;font-weight:normal;font-stretch:normal;letter-spacing:normal;word-spacing:normal;text-anchor:start;fill:#000000;stroke:#000000;stroke-width:0;stroke-linecap:butt;stroke-linejoin:miter;stroke-miterlimit:10.43299961;stroke-dasharray:none;stroke-dashoffset:0;stroke-opacity:1"
     id="path7534"
     d="m 166.90225,436.19547 v -0.0744 l -0.005,-0.0797 -0.0106,-0.0744 -0.0106,-0.0744 -0.0213,-0.0691 -0.016,-0.0691 -0.0266,-0.0691 -0.0266,-0.0638 -0.0266,-0.0638 -0.0319,-0.0638 -0.0372,-0.0585 -0.0372,-0.0532 -0.0372,-0.0531 -0.0425,-0.0532 -0.0478,-0.0532 -0.0478,-0.0425 -0.0478,-0.0478 -0.0531,-0.0425 -0.0531,-0.0372 -0.0532,-0.0372 -0.0585,-0.0372 -0.0585,-0.0319 -0.0585,-0.0266 -0.0638,-0.0266 -0.0638,-0.0213 -0.0638,-0.0213 -0.0638,-0.016 -0.0691,-0.0159 -0.0638,-0.0106 -0.0691,-0.005 -0.0691,-0.005 -0.0691,-0.005 c -0.82381,0 -1.40315,0.71752 -1.40315,1.40315 0,0.71752 0.57934,1.40315 1.40315,1.40315 0.73878,0 1.40315,-0.55276 1.40315,-1.40315 z" />
  <path
     inkscape:connector-curvature="0"
     style="font-style:normal;font-variant:normal;font-weight:normal;font-stretch:normal;letter-spacing:normal;word-spacing:normal;text-anchor:start;fill:#000000;stroke:#000000;stroke-width:0;stroke-linecap:butt;stroke-linejoin:miter;stroke-miterlimit:10.43299961;stroke-dasharray:none;stroke-dashoffset:0;stroke-opacity:1"
     id="path7536"
     d="m 172.2491,448.98858 0.005,-0.0159 v -0.0106 -0.016 -0.0213 -0.0213 -0.0266 -0.0266 l 0.005,-0.0319 v -0.0266 l 0.005,-0.0372 0.005,-0.0319 0.005,-0.0372 0.005,-0.0372 0.0106,-0.0425 0.005,-0.0425 0.0106,-0.0425 0.0106,-0.0425 0.0159,-0.0425 0.0106,-0.0478 0.0159,-0.0478 0.0159,-0.0478 0.0213,-0.0478 0.0213,-0.0478 0.0213,-0.0531 0.0266,-0.0478 0.0266,-0.0531 0.0266,-0.0478 0.0319,-0.0532 0.0319,-0.0478 0.0372,-0.0532 0.0372,-0.0478 0.0425,-0.0532 c 1.03641,0.73878 2.11535,0.82382 2.62559,0.82382 v -0.6059 c -2.31201,0 -2.31201,-2.65217 -2.31201,-3.26339 0,-0.71752 0.0319,-1.5626 0.4252,-2.21634 0.21791,-0.32421 0.82381,-1.06299 1.88681,-1.06299 2.29606,0 2.29606,2.64685 2.29606,3.25276 0,0.7122 -0.0213,1.5626 -0.41988,2.22697 -0.20729,0.31358 -0.82382,1.06299 -1.87618,1.06299 v 0 0.6059 c 2.45551,0 4.28385,-1.82834 4.28385,-3.86929 0,-0.98327 -0.42519,-1.96122 -1.07893,-2.56712 0.94606,-0.89823 1.90275,-1.03111 2.3811,-1.03111 0.0532,0 0.18602,0 0.26575,0.0266 -0.29764,0.1063 -0.4252,0.39862 -0.4252,0.7122 0,0.45178 0.34547,0.76536 0.76535,0.76536 0.26575,0 0.76536,-0.18071 0.76536,-0.78662 0,-0.45177 -0.31358,-1.29685 -1.34469,-1.29685 -0.53149,0 -1.69547,0.15945 -2.80629,1.23839 -1.11615,-0.87165 -2.22697,-0.94606 -2.8063,-0.94606 -2.46615,0 -4.29449,1.82303 -4.29449,3.85866 0,1.16397 0.57933,2.17382 1.2437,2.73189 -0.34016,0.3933 -0.82382,1.27027 -0.82382,2.19508 0,0.8185 0.35079,1.82303 1.17461,2.35452 -1.59449,0.45178 -2.44489,1.58918 -2.44489,2.65217 0,1.90275 2.62559,3.36437 5.85709,3.36437 l 0.0266,-0.60591 c -2.67343,0 -4.50178,-1.35531 -4.50178,-2.75846 0,-1.22244 1.00453,-2.20039 2.17382,-2.2748 h 1.5626 c 2.2748,0 5.24055,0 5.24055,2.2748 0,1.42972 -1.87618,2.75846 -4.47519,2.75846 v 0 l -0.0266,0.60591 c 3.11988,0 5.87835,-1.35532 5.87835,-3.41752 0,-0.93012 -0.37205,-2.28012 -1.71674,-3.0189 -1.40314,-0.73878 -2.93917,-0.73878 -4.56023,-0.73878 -0.66437,0 -1.80177,0 -1.98248,-0.0266 -0.8504,-0.1063 -1.40847,-0.93012 -1.40847,-1.7752 z" />
  <path
     inkscape:connector-curvature="0"
     style="font-style:normal;font-variant:normal;font-weight:normal;font-stretch:normal;letter-spacing:normal;word-spacing:normal;text-anchor:start;fill:#000000;stroke:#000000;stroke-width:0;stroke-linecap:butt;stroke-linejoin:miter;stroke-miterlimit:10.43299961;stroke-dasharray:none;stroke-dashoffset:0;stroke-opacity:1"
     id="path7538"
     d="m 185.62154,450.49803 v 0.0531 0.0532 0.10098 l -0.005,0.0957 -0.0106,0.0904 -0.005,0.0797 -0.0159,0.0797 -0.016,0.0691 -0.0159,0.0638 -0.0213,0.0585 -0.0266,0.0585 -0.0319,0.0478 -0.0319,0.0478 -0.0425,0.0425 -0.0425,0.0372 -0.0478,0.0319 -0.0532,0.0266 -0.0585,0.0266 -0.0585,0.0266 -0.0691,0.0159 -0.0797,0.0213 -0.0797,0.0106 -0.085,0.016 -0.0957,0.005 -0.0478,0.005 -0.0532,0.005 -0.0531,0.005 h -0.0531 l -0.0585,0.005 h -0.0585 -0.0585 l -0.0585,0.005 h -0.0638 -0.0691 -0.0691 -0.0691 -0.0691 -0.0744 -0.0744 -0.0797 -0.0797 -0.085 v 0.82381 c 0.93012,-0.0266 2.28012,-0.085 2.99233,-0.085 0.69094,0 2.06752,0.0585 2.96575,0.085 v -0.82381 c -1.76989,0 -2.06221,0 -2.06221,-1.18524 v -4.87382 c 0,-2.75846 1.87618,-4.23602 3.57165,-4.23602 1.6689,0 1.96122,1.42972 1.96122,2.93917 v 6.17067 c 0,1.18524 -0.29232,1.18524 -2.06751,1.18524 v 0.82381 c 0.93011,-0.0266 2.28011,-0.085 2.99763,-0.085 0.69095,0 2.05689,0.0585 2.96575,0.085 v -0.82381 c -1.38189,0 -2.04626,0 -2.06752,-0.79725 v -5.05453 c 0,-2.2748 0,-3.09862 -0.82382,-4.04468 -0.36673,-0.45709 -1.2437,-0.97795 -2.77441,-0.97795 -2.22697,0 -3.39626,1.58385 -3.84271,2.58838 v -9.26929 l -3.81615,0.29232 v 0.82382 c 1.85493,0 2.06752,0.18071 2.06752,1.48288 z" />
  <path
     inkscape:connector-curvature="0"
     style="font-style:normal;font-variant:normal;font-weight:normal;font-stretch:normal;letter-spacing:normal;word-spacing:normal;text-anchor:start;fill:#000000;stroke:#000000;stroke-width:0;stroke-linecap:butt;stroke-linejoin:miter;stroke-miterlimit:10.43299961;stroke-dasharray:none;stroke-dashoffset:0;stroke-opacity:1"
     id="path7540"
     d="m 201.25816,441.91968 h 3.78957 v -0.82382 h -3.78957 v -4.87381 h -0.66437 c -0.0213,2.1685 -0.81851,5.00669 -3.41221,5.10767 v 0.58996 h 2.24823 v 7.30807 c 0,3.25276 2.46083,3.57166 3.41752,3.57166 1.87618,0 2.62559,-1.87618 2.62559,-3.57166 v -1.50944 h -0.66437 v 1.45098 c 0,1.96122 -0.79724,2.96575 -1.78051,2.96575 -1.76988,0 -1.76988,-2.40768 -1.76988,-2.85945 z" />
  <text
     xml:space="preserve"
     style="font-style:normal;font-variant:normal;font-weight:normal;font-stretch:normal;font-size:20.41967964px;line-height:1.25;font-family:sans-serif;font-variant-ligatures:normal;font-variant-position:normal;font-variant-caps:normal;font-variant-numeric:normal;font-variant-alternates:normal;font-feature-settings:normal;text-indent:0;text-align:start;text-decoration:none;text-decoration-line:none;text-decoration-style:solid;text-decoration-color:#000000;letter-spacing:0px;word-spacing:0px;text-transform:none;writing-mode:lr-tb;direction:ltr;text-orientation:mixed;dominant-baseline:auto;baseline-shift:baseline;text-anchor:start;white-space:normal;shape-padding:0;opacity:1;vector-effect:none;fill:#000000;fill-opacity:1;stroke:none;stroke-width:0.76573795;stroke-linecap:butt;stroke-linejoin:miter;stroke-miterlimit:4;stroke-dasharray:none;stroke-dashoffset:0;stroke-opacity:1"
     x="278.80026"
     y="455.10049"
     id="text1195"
     transform="scale(1.3059297,0.76573799)"><tspan
       sodipodi:role="line"
       id="tspan1193"
       x="278.80026"
       y="455.10049"
       style="stroke-width:0.76573795">-</tspan></text>
</svg>
